<svg width="793" height="443" xmlns="http://www.w3.org/2000/svg"><g fill="none" fill-rule="evenodd"><path d="M470.08 227.83c0 90.62-69.91 164.09-156.17 164.09-86.26 0-156.18-73.47-156.18-164.09s69.92-164.1 156.18-164.1c86.25 0 156.17 73.47 156.17 164.1z" fill="#781D7D"/><path d="M422.83 236.96c0 113.47-94.65 205.48-211.41 205.48C94.65 442.44 0 350.43 0 236.96c0-113.5 94.65-205.5 211.42-205.5 116.76 0 211.41 92 211.41 205.5z" fill="#004580"/><path d="M731 175.97c0 96.97-77.41 175.58-172.91 175.58-95.49 0-172.91-78.61-172.91-175.58C385.18 79.01 462.6.4 558.09.4 653.59.4 731 79.01 731 175.97z" fill="#5C88A1"/><g fill="#FFF" fill-rule="nonzero"><path d="M108.51 161.59h22.95c13.91 0 23.49 7.14 23.49 19.34v.18c0 13.28-11.48 20.15-24.67 20.15H113.2v23.58h-4.7v-63.25h.01zm22.05 35.33c11.75 0 19.7-6.14 19.7-15.54v-.18c0-10.03-7.77-15.27-19.16-15.27h-17.89v30.99h17.35zM166.98 201.89v-.18c0-13.37 9.4-24.04 21.87-24.04 12.92 0 21.14 10.48 21.14 24.13 0 .81 0 1.08-.09 1.81h-38.22c.81 11.48 9.04 18.16 18.07 18.16 7.14 0 12.02-3.16 15.81-7.23l3.07 2.71c-4.7 5.06-10.21 8.67-19.07 8.67-12.1.01-22.58-9.66-22.58-24.03zm38.22-2.26c-.63-9.31-5.96-17.89-16.54-17.89-9.13 0-16.17 7.68-16.99 17.89h33.53zM226.79 211.47v-.18c0-9.58 8.22-15 20.15-15 6.42 0 10.84.81 15.27 1.99v-1.99c0-9.31-5.69-14.1-15.18-14.1-5.6 0-10.21 1.54-14.46 3.7l-1.63-3.88c5.06-2.35 10.03-3.98 16.35-3.98 6.24 0 11.2 1.72 14.55 5.06 3.07 3.07 4.7 7.32 4.7 13.01v28.73h-4.34v-7.68c-3.16 4.43-8.85 8.76-17.62 8.76-8.57.02-17.79-4.86-17.79-14.44zm35.51-3.88v-5.24c-3.89-.99-9.04-2.08-15.63-2.08-9.76 0-15.18 4.34-15.18 10.75v.18c0 6.69 6.32 10.57 13.37 10.57 9.4 0 17.44-5.78 17.44-14.18zM286.97 201.98v-.18c0-12.92 10.3-24.13 23.49-24.13 8.67 0 14.1 3.98 18.43 8.49l-3.16 3.25c-3.98-4.07-8.49-7.59-15.36-7.59-10.48 0-18.61 8.76-18.61 19.79v.18c0 11.11 8.4 19.97 18.98 19.97 6.51 0 11.57-3.34 15.45-7.68l3.07 2.71c-4.7 5.33-10.3 9.13-18.79 9.13-13.29.01-23.5-11.02-23.5-23.94zM346.25 201.89v-.18c0-13.37 9.4-24.04 21.87-24.04 12.92 0 21.14 10.48 21.14 24.13 0 .81 0 1.08-.09 1.81h-38.22c.81 11.48 9.04 18.16 18.07 18.16 7.14 0 12.02-3.16 15.81-7.23l3.07 2.71c-4.7 5.06-10.21 8.67-19.07 8.67-12.1.01-22.58-9.66-22.58-24.03zm38.22-2.26c-.63-9.31-5.96-17.89-16.53-17.89-9.13 0-16.18 7.68-16.99 17.89h33.52zM410.85 161.59h4.43l43.64 55.03v-55.03h4.52v63.25h-3.52l-44.55-56.2v56.2h-4.52zM485.76 201.89v-.18c0-13.37 9.4-24.04 21.87-24.04 12.92 0 21.14 10.48 21.14 24.13 0 .81 0 1.08-.09 1.81h-38.22c.81 11.48 9.04 18.16 18.07 18.16 7.14 0 12.02-3.16 15.81-7.23l3.07 2.71c-4.7 5.06-10.21 8.67-19.06 8.67-12.11.01-22.59-9.66-22.59-24.03zm38.22-2.26c-.63-9.31-5.96-17.89-16.54-17.89-9.13 0-16.17 7.68-16.99 17.89h33.53zM563.92 201.35l-18.16-22.59h5.51l15.54 19.52 15.54-19.52h5.33l-18.16 22.5 18.89 23.58h-5.51l-16.27-20.51-16.26 20.51h-5.33zM607.65 206.95v-28.19h4.43v27.38c0 9.49 5.33 15.72 14.64 15.72 9.03 0 15.99-6.87 15.99-16.44v-26.66h4.43v46.08h-4.43v-8.58c-3.07 5.42-8.22 9.67-16.63 9.67-11.65 0-18.43-7.95-18.43-18.98zM667.65 219.06l2.62-3.52c5.06 3.89 10.66 6.05 16.54 6.05 6.23 0 11.11-3.43 11.11-8.77v-.18c0-5.42-5.78-7.41-12.2-9.22-7.5-2.17-15.81-4.43-15.81-12.65v-.18c0-7.41 6.23-12.74 15.18-12.74 5.51 0 11.75 1.99 16.35 5.06l-2.35 3.7c-4.25-2.8-9.31-4.61-14.19-4.61-6.33 0-10.48 3.43-10.48 8.04v.18c0 5.15 6.24 7.05 12.83 8.95 7.41 2.08 15.18 4.79 15.18 12.92v.18c0 8.22-7.05 13.46-15.9 13.46-6.68.02-14-2.69-18.88-6.67z"/></g><g fill="#FFF" fill-rule="nonzero"><path d="M106.73 249.12h21.73v3.15h-18.32v10.8h16.37v3.11h-16.37v13.18h-3.41zM140.41 268.3v-.08c0-6.31 4.92-11.67 11.66-11.67 6.7 0 11.62 5.27 11.62 11.58v.09c0 6.31-4.97 11.66-11.71 11.66-6.69 0-11.57-5.27-11.57-11.58zm19.87 0v-.08c0-4.8-3.59-8.73-8.3-8.73-4.84 0-8.16 3.93-8.16 8.64v.09c0 4.79 3.54 8.68 8.25 8.68 4.84 0 8.21-3.89 8.21-8.6zM176.64 270.89v-13.87h3.33v13.05c0 4.15 2.25 6.74 6.18 6.74 3.8 0 6.7-2.81 6.7-7v-12.79h3.28v22.34h-3.28v-3.89c-1.51 2.42-3.8 4.36-7.65 4.36-5.41.01-8.56-3.63-8.56-8.94zM210.88 257.02h3.33v3.89c1.47-2.42 3.8-4.37 7.65-4.37 5.4 0 8.55 3.63 8.55 8.95v13.87h-3.33v-13.05c0-4.14-2.24-6.74-6.18-6.74-3.84 0-6.7 2.81-6.7 7v12.79h-3.33v-22.34h.01zM243.48 268.26v-.09c0-7.3 5.32-11.62 10.67-11.62 4.15 0 6.82 2.25 8.55 4.75v-13.48h3.33v31.54h-3.33v-4.5c-1.81 2.68-4.45 4.97-8.55 4.97-5.35.01-10.67-4.23-10.67-11.57zm19.35-.04v-.09c0-5.14-3.93-8.6-8.08-8.6-4.32 0-7.86 3.2-7.86 8.6v.09c0 5.27 3.63 8.64 7.86 8.64 4.15-.01 8.08-3.51 8.08-8.64zM279.06 272.88v-.08c0-4.79 3.89-7.3 9.55-7.3 2.85 0 4.84.39 6.83.95v-.69c0-3.98-2.42-6.05-6.61-6.05-2.64 0-4.71.64-6.78 1.6l-.99-2.72c2.46-1.12 4.84-1.9 8.12-1.9 3.15 0 5.61.86 7.21 2.46 1.55 1.55 2.34 3.71 2.34 6.57v13.65h-3.29v-3.33c-1.55 1.99-4.1 3.8-8.03 3.8-4.2 0-8.35-2.38-8.35-6.96zm16.42-1.73v-2.07c-1.64-.48-3.8-.95-6.52-.95-4.15 0-6.52 1.82-6.52 4.49v.09c0 2.81 2.59 4.45 5.62 4.45 4.09 0 7.42-2.47 7.42-6.01zM314.21 273.44v-13.47h-3.11v-2.94h3.11v-6.74h3.32v6.74h7.09v2.94h-7.09v13.05c0 2.72 1.51 3.72 3.76 3.72 1.12 0 2.07-.22 3.24-.78v2.85c-1.17.6-2.42.95-4.02.95-3.58-.01-6.3-1.78-6.3-6.32zM337.87 248.47h3.8v3.68h-3.8v-3.68zm.22 8.55h3.33v22.34h-3.33v-22.34zM355.06 268.3v-.08c0-6.31 4.93-11.67 11.66-11.67 6.7 0 11.62 5.27 11.62 11.58v.09c0 6.31-4.97 11.66-11.71 11.66-6.69 0-11.57-5.27-11.57-11.58zm19.87 0v-.08c0-4.8-3.59-8.73-8.3-8.73-4.84 0-8.16 3.93-8.16 8.64v.09c0 4.79 3.54 8.68 8.25 8.68 4.84 0 8.21-3.89 8.21-8.6zM391.63 257.02h3.33v3.89c1.47-2.42 3.8-4.37 7.65-4.37 5.4 0 8.55 3.63 8.55 8.95v13.87h-3.33v-13.05c0-4.14-2.24-6.74-6.18-6.74-3.84 0-6.69 2.81-6.69 7v12.79h-3.33v-22.34z"/></g><path fill="#140B5A" fill-rule="nonzero" d="M647.09 366.41l-17.25-27.07h4.35l14.77 23.55 14.78-23.55h4.2l-17.25 27.07v22.95h-3.6zM696.21 384.19c-1.5 1.9-3.54 3.39-6.11 4.46-2.57 1.07-5.21 1.61-7.91 1.61-2.55 0-4.91-.44-7.09-1.31-2.17-.87-4.04-2.11-5.59-3.71-1.55-1.6-2.76-3.51-3.64-5.74-.88-2.22-1.31-4.69-1.31-7.39 0-2.5.41-4.85 1.24-7.05.83-2.2 1.96-4.12 3.41-5.78 1.45-1.65 3.2-2.95 5.25-3.9 2.05-.95 4.3-1.42 6.75-1.42 2.35 0 4.54.41 6.56 1.24 2.03.83 3.78 2.04 5.25 3.64 1.47 1.6 2.62 3.59 3.45 5.96.83 2.38 1.24 5.11 1.24 8.21h-29.4c.05 1.95.42 3.79 1.12 5.51.7 1.73 1.65 3.23 2.85 4.5 1.2 1.27 2.64 2.28 4.31 3 1.67.73 3.54 1.09 5.59 1.09 1.05 0 2.14-.11 3.26-.34 1.12-.23 2.21-.56 3.26-1.01 1.05-.45 2.01-.98 2.89-1.57.87-.6 1.61-1.28 2.21-2.03l2.41 2.03zm-2.17-14.1c-.45-4.25-1.8-7.47-4.05-9.68-2.25-2.2-5.17-3.3-8.78-3.3-1.85 0-3.54.34-5.06 1.01-1.53.67-2.84 1.6-3.94 2.77a14.1 14.1 0 0 0-2.66 4.12 14.91 14.91 0 0 0-1.16 5.06h25.65v.02zM729.96 389.36c-.05-.7-.09-1.47-.11-2.33-.03-.85-.04-2-.04-3.45-.9 1.3-1.9 2.39-3 3.26-1.1.88-2.21 1.56-3.34 2.06-1.12.5-2.26.85-3.41 1.05-1.15.2-2.2.3-3.15.3-1.45 0-2.9-.15-4.35-.45-1.45-.3-2.75-.84-3.9-1.61-1.15-.77-2.09-1.82-2.81-3.15-.73-1.32-1.09-3.01-1.09-5.06 0-1.65.27-3.21.83-4.69a9.627 9.627 0 0 1 2.62-3.83c1.2-1.07 2.75-1.92 4.65-2.55 1.9-.62 4.2-.94 6.9-.94 2.1 0 3.98.08 5.62.23 1.65.15 3.05.33 4.2.52v-1.95c0-1.9-.22-3.47-.67-4.72-.45-1.25-1.12-2.25-2.03-3-.9-.75-2-1.28-3.3-1.58-1.3-.3-2.8-.45-4.5-.45-2.85 0-5.11.41-6.79 1.24-1.68.82-2.96 1.61-3.86 2.36l-1.8-2.32c.95-.9 2.49-1.85 4.61-2.85s4.71-1.5 7.76-1.5c4.5 0 7.95.95 10.35 2.85 2.4 1.9 3.6 5.05 3.6 9.45v18.71c0 .88.02 1.64.08 2.29l.15 2.1h-3.22v.01zm-.3-17.62c-1.05-.25-2.36-.46-3.94-.64-1.58-.17-3.59-.26-6.04-.26-2.55 0-4.58.31-6.08.94-1.5.63-2.64 1.4-3.41 2.32-.78.93-1.27 1.93-1.5 3-.22 1.08-.34 2.04-.34 2.89 0 2.55.84 4.39 2.51 5.51s3.81 1.69 6.41 1.69c1.7 0 3.3-.3 4.8-.9 1.5-.6 2.81-1.4 3.94-2.4 1.12-1 2.01-2.14 2.66-3.41.65-1.27.97-2.56.97-3.86v-4.88h.02zM743.39 362.14v-2.44-1.8c0-.53-.01-1.02-.04-1.5-.03-.47-.06-.99-.11-1.54h3.15c.05.55.09 1.08.11 1.58.02.5.05 1.04.08 1.61.02.58.04 1.21.04 1.91v2.48c.4-.75.94-1.59 1.61-2.51.68-.92 1.54-1.79 2.59-2.59 1.05-.8 2.27-1.47 3.67-2.02s3.02-.83 4.88-.83c1.1 0 2.05.18 2.85.52l-.98 3.23c-.35-.15-.76-.25-1.24-.3-.48-.05-.91-.08-1.31-.08-1.8 0-3.43.4-4.88 1.2-1.45.8-2.7 1.85-3.75 3.15-1.05 1.3-1.86 2.79-2.44 4.46-.58 1.68-.86 3.36-.86 5.06v17.62h-3.38v-27.21h.01zM766.71 382.61c1.45 1.45 3.11 2.56 4.99 3.34 1.88.78 4.09 1.16 6.64 1.16 1.4 0 2.72-.14 3.97-.41 1.25-.27 2.35-.67 3.3-1.2.95-.53 1.7-1.19 2.25-1.99s.82-1.75.82-2.85c0-1.25-.25-2.27-.75-3.07-.5-.8-1.24-1.46-2.21-1.99-.98-.52-2.2-.97-3.67-1.35-1.48-.38-3.16-.79-5.06-1.24-1.6-.35-3.06-.76-4.39-1.24-1.33-.47-2.46-1.06-3.41-1.76-.95-.7-1.7-1.59-2.25-2.66s-.82-2.41-.82-4.01c0-1.55.35-2.91 1.05-4.09.7-1.17 1.64-2.16 2.81-2.96 1.17-.8 2.52-1.39 4.05-1.76 1.52-.38 3.11-.56 4.76-.56 2.7 0 5.09.5 7.16 1.5 2.07 1 3.76 2.28 5.06 3.82l-2.33 2.1c-1.2-1.3-2.59-2.35-4.16-3.15-1.58-.8-3.46-1.2-5.66-1.2-1.1 0-2.2.09-3.3.26-1.1.18-2.1.5-3 .98-.9.48-1.62 1.12-2.17 1.95-.55.83-.83 1.91-.83 3.26 0 1.1.31 2.02.94 2.77.63.75 1.44 1.38 2.44 1.88s2.15.91 3.45 1.24c1.3.33 2.6.64 3.9.94 1.4.3 2.81.67 4.24 1.12 1.42.45 2.72 1.04 3.9 1.76a9.09 9.09 0 0 1 2.85 2.77c.72 1.12 1.09 2.54 1.09 4.24 0 1.75-.4 3.25-1.2 4.5a10.06 10.06 0 0 1-3.15 3.11c-1.3.83-2.77 1.44-4.42 1.84-1.65.4-3.3.6-4.95.6-3.25 0-6.01-.48-8.29-1.42-2.28-.95-4.21-2.22-5.81-3.83l2.16-2.4zM596.76 347.14c-.13 4.12-.55 7.96-1.27 11.49-.89 4.34-2.19 8.07-3.92 11.2-1.73 3.13-3.87 5.55-6.44 7.28-2.57 1.73-5.53 2.59-8.89 2.59-3.36 0-6.3-.86-8.82-2.59-2.52-1.73-4.64-4.15-6.37-7.28-1.73-3.13-3.03-6.86-3.92-11.2-.46-2.25-.79-4.62-1.02-7.11-4.46-.05-8.87-.27-13.24-.66.31 4.55.95 8.8 1.94 12.74 1.45 5.79 3.59 10.73 6.44 14.84 2.85 4.11 6.35 7.28 10.5 9.52 4.15 2.24 8.98 3.36 14.49 3.36 5.41 0 10.22-1.12 14.42-3.36 4.2-2.24 7.75-5.41 10.64-9.52 2.89-4.11 5.06-9.05 6.51-14.84 1.45-5.79 2.17-12.23 2.17-19.32 0-.26-.01-.52-.01-.78-4.33 1.39-8.74 2.6-13.21 3.64zM510.02 344.67c-4.32-1.27-8.57-2.7-12.74-4.3v37.79H481.6v11.2h43.82v-11.2h-15.4v-33.49z"/><path d="M556.12 351.53c-.21-2.32-.31-4.73-.31-7.25 0-5.13.44-9.8 1.33-14 .89-4.2 2.19-7.77 3.92-10.71 1.73-2.94 3.85-5.2 6.37-6.79 2.52-1.59 5.46-2.38 8.82-2.38 3.36 0 6.3.79 8.82 2.38 2.52 1.59 4.67 3.85 6.44 6.79 1.77 2.94 3.1 6.51 3.99 10.71.89 4.2 1.33 8.87 1.33 14 0 .97-.03 1.91-.06 2.86 4.47-1.04 8.88-2.25 13.21-3.63-.05-6.69-.77-12.73-2.16-18.12-1.45-5.6-3.59-10.38-6.44-14.35-2.85-3.97-6.37-7.02-10.57-9.17-4.2-2.15-9.01-3.22-14.42-3.22-5.51 0-10.34 1.07-14.49 3.22-4.15 2.15-7.68 5.2-10.57 9.17-2.89 3.97-5.06 8.75-6.51 14.35-1.45 5.6-2.17 11.9-2.17 18.9 0 2.27.08 4.46.23 6.6 4.36.38 8.78.59 13.24.64zM497.28 314.74v25.64c4.17 1.59 8.42 3.03 12.74 4.3v-43.65h-11.34L473.9 314.6l5.18 9.94 18.2-9.8z" fill="#FFF" fill-rule="nonzero"/></g></svg>