<?xml version="1.0" encoding="UTF-8"?>
<svg width="300px" height="168px" viewBox="0 0 300 168" version="1.1" xmlns="http://www.w3.org/2000/svg" xmlns:xlink="http://www.w3.org/1999/xlink">
    <!-- Generator: Sketch 53.2 (72643) - https://sketchapp.com -->
    <title>LogoPN10</title>
    <desc>Created with Sketch.</desc>
    <g id="Page-1" stroke="none" stroke-width="1" fill="none" fill-rule="evenodd">
        <g id="LogoPN10">
            <g id="Group" transform="translate(122.950820, 24.211854)" fill="#781D7D">
                <path d="M25.1235813,24.6393443 C25.1311475,24.6506936 25.1387137,24.6620429 25.1462799,24.6771753 C25.1387137,24.665826 25.1349306,24.6544767 25.1235813,24.6393443 C26.3757881,20.0504414 28.0933165,15.6582598 30.2307692,11.5233291 C21.6696091,5.06179067 11.3947037,0.941992434 0.257250946,0.0718789407 C0.291298865,0.0756620429 0.325346784,0.0756620429 0.359394704,0.079445145 C10.3770492,6.36696091 18.8474149,14.776797 25.1197982,24.6469105 C25.1084489,24.6923077 25.0970996,24.7377049 25.0857503,24.7831021 C25.1008827,24.7377049 25.112232,24.6885246 25.1235813,24.6393443 Z" id="Path"></path>
                <path d="M46.6191677,93.6544767 C42.3631778,90.0945776 38.5611602,85.9936948 35.3039092,81.4653216 C31.9369483,97.074401 23.7503153,110.962169 12.3253468,121.592686 C28.7213115,116.583859 42.1702396,104.311475 49.3127364,88.3127364 C48.4993695,90.1437579 47.5989912,91.925599 46.6191677,93.6544767 Z" id="Path"></path>
            </g>
            <path d="M158.254729,105.673392 C159.370744,100.498108 159.960908,95.1374527 159.960908,89.6406053 C159.960908,74.6784363 155.61034,60.7074401 148.074401,48.851198 C146.538462,54.4918033 145.717528,60.4350567 145.717528,66.5712484 C145.717528,81.1891551 150.370744,94.702396 158.254729,105.673392 Z" id="Path" fill="#040042"></path>
            <path d="M153.185372,35.738966 C151.047919,39.8738966 149.326608,44.2660782 148.078184,48.8587642 C155.61034,60.7150063 159.960908,74.6860025 159.960908,89.6481715 C159.960908,95.1450189 159.370744,100.505675 158.254729,105.677175 C161.51198,110.209332 165.313997,114.310214 169.569987,117.870113 C174.81715,108.593947 177.836066,97.7667087 177.836066,86.1904161 C177.836066,65.4022699 168.113493,47.0050441 153.185372,35.738966 Z" id="Path" fill="#3E0258"></path>
            <path d="M158.254729,105.673392 C150.374527,94.702396 145.717528,81.1891551 145.717528,66.5712484 C145.717528,60.4388398 146.542245,54.4993695 148.074401,48.8587642 C141.802018,38.9886507 133.331652,30.5788146 123.313997,24.2912989 C121.808323,24.1702396 120.287516,24.10971 118.755359,24.10971 C86.1223203,24.10971 59.6708701,51.9041614 59.6708701,86.1904161 C59.6708701,120.472888 86.1223203,148.267339 118.755359,148.267339 C124.490542,148.267339 130.03657,147.404792 135.27995,145.80454 C150.48802,131.651955 159.960908,111.722573 159.960908,89.6443884 C159.960908,95.1412358 159.370744,100.501892 158.254729,105.673392 Z" id="Path" fill="#140B5A"></path>
            <path d="M211.131148,0.151324086 C185.965952,0.151324086 164.126103,14.5838588 153.185372,35.738966 C168.113493,47.0050441 177.836066,65.406053 177.836066,86.1904161 C177.836066,97.7629256 174.81715,108.593947 169.569987,117.870113 C180.870113,127.320303 195.348045,132.998739 211.131148,132.998739 C247.259773,132.998739 276.544767,103.259773 276.544767,66.5750315 C276.544767,29.89029 247.259773,0.151324086 211.131148,0.151324086 Z" id="Path" fill="#5C88A1"></path>
            <path d="M118.755359,148.267339 C86.1223203,148.267339 59.6708701,120.472888 59.6708701,86.1904161 C59.6708701,51.9079445 86.1223203,24.10971 118.755359,24.10971 C120.291299,24.10971 121.812106,24.1702396 123.313997,24.2912989 C110.825977,16.4527112 95.9508197,11.9016393 79.9823455,11.9016393 C35.8070618,11.9016393 2.84217094e-14,46.7061791 2.84217094e-14,89.6443884 C2.84217094e-14,132.571248 35.8070618,167.379571 79.9823455,167.379571 C101.436318,167.379571 120.915511,159.166456 135.27995,145.80454 C130.03657,147.404792 124.490542,148.267339 118.755359,148.267339 Z" id="Path" fill="#004580"></path>
            <g id="Group" transform="translate(40.857503, 60.907945)" fill="#FFFFFF" fill-rule="nonzero" stroke="#FFFFFF">
                <path d="M0.192938209,0.223203026 L8.87515763,0.223203026 C14.1374527,0.223203026 17.7616646,2.92433796 17.7616646,7.53972257 L17.7616646,7.60781841 C17.7616646,12.6317781 13.4186633,15.2307692 8.42875158,15.2307692 L1.96721311,15.2307692 L1.96721311,24.1513241 L0.189155107,24.1513241 L0.189155107,0.223203026 L0.192938209,0.223203026 Z M8.53467844,13.5889029 C12.9798235,13.5889029 15.9873897,11.2660782 15.9873897,7.70996217 L15.9873897,7.64186633 C15.9873897,3.84741488 13.0479193,1.86506936 8.73896595,1.86506936 L1.97099622,1.86506936 L1.97099622,13.5889029 L8.53467844,13.5889029 Z" id="Shape"></path>
                <path d="M22.3127364,15.4691047 L22.3127364,15.4010088 C22.3127364,10.3430013 25.8688525,6.30643127 30.5863808,6.30643127 C35.4741488,6.30643127 38.5838588,10.2711223 38.5838588,15.4350567 C38.5838588,15.741488 38.5838588,15.8436318 38.5498108,16.1197982 L24.0907945,16.1197982 C24.3972257,20.4627995 27.5107188,22.9899117 30.92686,22.9899117 C33.627995,22.9899117 35.4741488,21.7944515 36.9079445,20.2547289 L38.0693569,21.2799496 C36.2912989,23.1941992 34.2068096,24.5598991 30.8549811,24.5598991 C26.2774275,24.5636822 22.3127364,20.9054224 22.3127364,15.4691047 Z M36.7717528,14.6141236 C36.5334174,11.0920555 34.517024,7.84615385 30.5145019,7.84615385 C27.0605296,7.84615385 24.3972257,10.7515763 24.0870113,14.6141236 L36.7717528,14.6141236 Z" id="Shape"></path>
                <path d="M44.9394704,19.0933165 L44.9394704,19.0252207 C44.9394704,15.4010088 48.0491803,13.3505675 52.5624212,13.3505675 C54.9911728,13.3505675 56.6633039,13.6569987 58.3392182,14.1034048 L58.3392182,13.3505675 C58.3392182,9.82849937 56.186633,8.01639344 52.5964691,8.01639344 C50.4779319,8.01639344 48.7339218,8.59899117 47.1261034,9.41614124 L46.5094578,7.9482976 C48.4237074,7.0592686 50.3039092,6.44262295 52.6948298,6.44262295 C55.0554855,6.44262295 56.9319042,7.09331652 58.1992434,8.35687264 C59.3606557,9.51828499 59.9773014,11.1261034 59.9773014,13.2786885 L59.9773014,24.147541 L58.3354351,24.147541 L58.3354351,21.2421185 C57.1399748,22.9180328 54.9873897,24.556116 51.6696091,24.556116 C48.4274905,24.5636822 44.9394704,22.7175284 44.9394704,19.0933165 Z M58.3732661,17.6254729 L58.3732661,15.6431274 C56.9016393,15.2686003 54.9533417,14.8562421 52.4602774,14.8562421 C48.7679697,14.8562421 46.7175284,16.4981084 46.7175284,18.9230769 L46.7175284,18.9911728 C46.7175284,21.5220681 49.1084489,22.9899117 51.7755359,22.9899117 C55.331652,22.9899117 58.3732661,20.8032787 58.3732661,17.6254729 Z" id="Shape"></path>
                <path d="M67.7061791,15.5031526 L67.7061791,15.4350567 C67.7061791,10.5472888 71.6027743,6.30643127 76.592686,6.30643127 C79.8726356,6.30643127 81.92686,7.81210593 83.5649433,9.51828499 L82.369483,10.7477932 C80.8638083,9.20807062 79.1576293,7.87641866 76.5586381,7.87641866 C72.593947,7.87641866 69.518285,11.1904161 69.518285,15.3631778 L69.518285,15.4312736 C69.518285,19.6343001 72.6960908,22.9861286 76.6986129,22.9861286 C79.1614124,22.9861286 81.075662,21.7225725 82.5435057,20.0807062 L83.704918,21.1059269 C81.92686,23.1223203 79.8083228,24.5598991 76.5964691,24.5598991 C71.5687264,24.5636822 67.7061791,20.3909206 67.7061791,15.5031526 Z" id="Path"></path>
                <path d="M90.1324086,15.4691047 L90.1324086,15.4010088 C90.1324086,10.3430013 93.6885246,6.30643127 98.406053,6.30643127 C103.293821,6.30643127 106.403531,10.2711223 106.403531,15.4350567 C106.403531,15.741488 106.403531,15.8436318 106.369483,16.1197982 L91.9104666,16.1197982 C92.2168979,20.4627995 95.3303909,22.9899117 98.7465322,22.9899117 C101.447667,22.9899117 103.293821,21.7944515 104.727617,20.2547289 L105.889029,21.2799496 C104.110971,23.1941992 102.026482,24.5598991 98.6746532,24.5598991 C94.0970996,24.5636822 90.1324086,20.9054224 90.1324086,15.4691047 Z M104.591425,14.6141236 C104.35309,11.0920555 102.336696,7.84615385 98.3379571,7.84615385 C94.8839849,7.84615385 92.2168979,10.7515763 91.9104666,14.6141236 L104.591425,14.6141236 Z" id="Shape"></path>
                <polygon id="Path" points="114.571248 0.223203026 116.247163 0.223203026 132.75662 21.0416141 132.75662 0.223203026 134.466583 0.223203026 134.466583 24.1513241 133.134931 24.1513241 116.281211 2.89029004 116.281211 24.1513241 114.571248 24.1513241"></polygon>
                <path d="M142.910467,15.4691047 L142.910467,15.4010088 C142.910467,10.3430013 146.466583,6.30643127 151.184111,6.30643127 C156.071879,6.30643127 159.181589,10.2711223 159.181589,15.4350567 C159.181589,15.741488 159.181589,15.8436318 159.147541,16.1197982 L144.688525,16.1197982 C144.994956,20.4627995 148.108449,22.9899117 151.52459,22.9899117 C154.225725,22.9899117 156.071879,21.7944515 157.505675,20.2547289 L158.667087,21.2799496 C156.889029,23.1941992 154.80454,24.5598991 151.456494,24.5598991 C146.875158,24.5636822 142.910467,20.9054224 142.910467,15.4691047 Z M157.369483,14.6141236 C157.131148,11.0920555 155.114754,7.84615385 151.112232,7.84615385 C147.65826,7.84615385 144.994956,10.7515763 144.684741,14.6141236 L157.369483,14.6141236 Z" id="Shape"></path>
                <polygon id="Path" points="172.479193 15.2648172 165.609079 6.71878941 167.693569 6.71878941 173.572509 14.1034048 179.45145 6.71878941 181.467844 6.71878941 174.59773 15.2307692 181.74401 24.1513241 179.659521 24.1513241 173.504414 16.3921816 167.35309 24.1513241 165.336696 24.1513241"></polygon>
                <path d="M189.022699,17.3833544 L189.022699,6.71878941 L190.698613,6.71878941 L190.698613,17.0769231 C190.698613,20.667087 192.715006,23.0239596 196.237074,23.0239596 C199.653216,23.0239596 202.286255,20.4249685 202.286255,16.8045397 L202.286255,6.71878941 L203.962169,6.71878941 L203.962169,24.1513241 L202.286255,24.1513241 L202.286255,20.9054224 C201.124842,22.9558638 199.176545,24.5636822 195.994956,24.5636822 C191.587642,24.5636822 189.022699,21.556116 189.022699,17.3833544 Z" id="Path"></path>
                <path d="M211.721311,21.964691 L212.712484,20.6330391 C214.626734,22.1046658 216.745271,22.9218159 218.969735,22.9218159 C221.326608,22.9218159 223.172762,21.6242119 223.172762,19.6040353 L223.172762,19.5359395 C223.172762,17.4854981 220.986129,16.7326608 218.557377,16.0479193 C215.72005,15.2269861 212.576293,14.372005 212.576293,11.2622951 L212.576293,11.1941992 C212.576293,8.39092055 214.933165,6.37452711 218.319042,6.37452711 C220.403531,6.37452711 222.764187,7.12736444 224.504414,8.2887768 L223.615385,9.68852459 C222.007566,8.62925599 220.093317,7.9445145 218.247163,7.9445145 C215.852459,7.9445145 214.282472,9.24211854 214.282472,10.9861286 L214.282472,11.0542245 C214.282472,13.0025221 216.643127,13.7213115 219.136192,14.4401009 C221.93947,15.2269861 224.878941,16.2522068 224.878941,19.3278689 L224.878941,19.3959647 C224.878941,22.5056747 222.211854,24.4880202 218.863808,24.4880202 C216.336696,24.4955864 213.567465,23.4703657 211.721311,21.964691 Z" id="Path"></path>
            </g>
            <g id="Group" transform="translate(40.100883, 93.442623)" fill="#FFFFFF" fill-rule="nonzero" stroke="#FFFFFF">
                <polygon id="Path" points="0.276166456 0.802017654 8.49684741 0.802017654 8.49684741 1.99369483 1.56620429 1.99369483 1.56620429 6.07944515 7.7591425 6.07944515 7.7591425 7.25598991 1.56620429 7.25598991 1.56620429 12.2421185 0.276166456 12.2421185"></polygon>
                <path d="M13.0176545,8.05800757 L13.0176545,8.02774275 C13.0176545,5.6406053 14.8789407,3.61286255 17.4287516,3.61286255 C19.96343,3.61286255 21.8247163,5.60655738 21.8247163,7.99369483 L21.8247163,8.02774275 C21.8247163,10.4148802 19.9445145,12.4388398 17.3947037,12.4388398 C14.8638083,12.4388398 13.0176545,10.445145 13.0176545,8.05800757 Z M20.5346784,8.05800757 L20.5346784,8.02774275 C20.5346784,6.21185372 19.1765448,4.72509458 17.3947037,4.72509458 C15.5636822,4.72509458 14.3076923,6.21185372 14.3076923,7.99369483 L14.3076923,8.02774275 C14.3076923,9.83984868 15.6469105,11.3114754 17.4287516,11.3114754 C19.259773,11.3114754 20.5346784,9.83984868 20.5346784,8.05800757 Z" id="Shape"></path>
                <path d="M26.7238335,9.03783102 L26.7238335,3.79066835 L27.9836066,3.79066835 L27.9836066,8.72761665 C27.9836066,10.297604 28.8348045,11.2774275 30.3215637,11.2774275 C31.7591425,11.2774275 32.8562421,10.2143758 32.8562421,8.62925599 L32.8562421,3.79066835 L34.0970996,3.79066835 L34.0970996,12.2421185 L32.8562421,12.2421185 L32.8562421,10.7704918 C32.2849937,11.6860025 31.4186633,12.4199243 29.962169,12.4199243 C27.9155107,12.4237074 26.7238335,11.0466583 26.7238335,9.03783102 Z" id="Path"></path>
                <path d="M39.6771753,3.79066835 L40.9369483,3.79066835 L40.9369483,5.26229508 C41.4930643,4.34678436 42.3745271,3.60907945 43.8310214,3.60907945 C45.8738966,3.60907945 47.0655738,4.98234552 47.0655738,6.99495586 L47.0655738,12.2421185 L45.8058008,12.2421185 L45.8058008,7.30517024 C45.8058008,5.73896595 44.9583859,4.75535939 43.4678436,4.75535939 C42.0151324,4.75535939 40.9331652,5.8184111 40.9331652,7.4035309 L40.9331652,12.2421185 L39.6733922,12.2421185 L39.6733922,3.79066835 L39.6771753,3.79066835 Z" id="Path"></path>
                <path d="M52.0100883,8.04287516 L52.0100883,8.00882724 C52.0100883,5.24716267 54.0226986,3.61286255 56.0466583,3.61286255 C57.6166456,3.61286255 58.6267339,4.46406053 59.2812106,5.40983607 L59.2812106,0.310214376 L60.5409836,0.310214376 L60.5409836,12.2421185 L59.2812106,12.2421185 L59.2812106,10.5397226 C58.5964691,11.5535939 57.5977301,12.4199243 56.0466583,12.4199243 C54.0226986,12.4237074 52.0100883,10.8196721 52.0100883,8.04287516 Z M59.3303909,8.02774275 L59.3303909,7.99369483 C59.3303909,6.04918033 57.8436318,4.74022699 56.2736444,4.74022699 C54.6393443,4.74022699 53.3001261,5.95081967 53.3001261,7.99369483 L53.3001261,8.02774275 C53.3001261,10.0214376 54.6733922,11.296343 56.2736444,11.296343 C57.8436318,11.2925599 59.3303909,9.96847415 59.3303909,8.02774275 Z" id="Shape"></path>
                <path d="M65.4703657,9.79066835 L65.4703657,9.76040353 C65.4703657,7.9482976 66.9419924,6.99873897 69.0832282,6.99873897 C70.1614124,6.99873897 70.9142497,7.14627995 71.667087,7.35813367 L71.667087,7.09709962 C71.667087,5.59142497 70.7515763,4.80832282 69.1664565,4.80832282 C68.1677175,4.80832282 67.3846154,5.05044136 66.6015132,5.41361917 L66.2269861,4.38461538 C67.1576293,3.96090794 68.0580076,3.66582598 69.2988651,3.66582598 C70.4905422,3.66582598 71.4211854,3.99117276 72.0264817,4.5964691 C72.6128625,5.18284994 72.9117276,6 72.9117276,7.08196721 L72.9117276,12.2459016 L71.667087,12.2459016 L71.667087,10.9861286 C71.0807062,11.738966 70.1160151,12.4237074 68.629256,12.4237074 C67.0403531,12.4237074 65.4703657,11.5233291 65.4703657,9.79066835 Z M71.6822194,9.13619168 L71.6822194,8.35308953 C71.0617907,8.17150063 70.2446406,7.99369483 69.2156368,7.99369483 C67.6456494,7.99369483 66.7490542,8.68221942 66.7490542,9.69230769 L66.7490542,9.72635561 C66.7490542,10.7894073 67.7288777,11.4098361 68.8751576,11.4098361 C70.4224464,11.4098361 71.6822194,10.4754098 71.6822194,9.13619168 Z" id="Shape"></path>
                <path d="M78.7679697,10.0025221 L78.7679697,4.90668348 L77.591425,4.90668348 L77.591425,3.79445145 L78.7679697,3.79445145 L78.7679697,1.24464061 L80.0239596,1.24464061 L80.0239596,3.79445145 L82.7061791,3.79445145 L82.7061791,4.90668348 L80.0239596,4.90668348 L80.0239596,9.84363178 C80.0239596,10.8726356 80.5952081,11.2509458 81.4464061,11.2509458 C81.8701135,11.2509458 82.2295082,11.1677175 82.6721311,10.9558638 L82.6721311,12.0340479 C82.2295082,12.261034 81.7566204,12.3934426 81.1513241,12.3934426 C79.7969735,12.3896595 78.7679697,11.7200504 78.7679697,10.0025221 Z" id="Path"></path>
                <path d="M87.7187894,0.556116015 L89.1563682,0.556116015 L89.1563682,1.9482976 L87.7187894,1.9482976 L87.7187894,0.556116015 Z M87.8020177,3.79066835 L89.0617907,3.79066835 L89.0617907,12.2421185 L87.8020177,12.2421185 L87.8020177,3.79066835 Z" id="Shape"></path>
                <path d="M94.221942,8.05800757 L94.221942,8.02774275 C94.221942,5.6406053 96.0870113,3.61286255 98.6330391,3.61286255 C101.167718,3.61286255 103.029004,5.60655738 103.029004,7.99369483 L103.029004,8.02774275 C103.029004,10.4148802 101.148802,12.4388398 98.5989912,12.4388398 C96.0680958,12.4388398 94.221942,10.445145 94.221942,8.05800757 Z M101.738966,8.05800757 L101.738966,8.02774275 C101.738966,6.21185372 100.380832,4.72509458 98.5989912,4.72509458 C96.7679697,4.72509458 95.5119798,6.21185372 95.5119798,7.99369483 L95.5119798,8.02774275 C95.5119798,9.83984868 96.851198,11.3114754 98.6330391,11.3114754 C100.464061,11.3114754 101.738966,9.83984868 101.738966,8.05800757 Z" id="Shape"></path>
                <path d="M108.056747,3.79066835 L109.31652,3.79066835 L109.31652,5.26229508 C109.872636,4.34678436 110.754098,3.60907945 112.210593,3.60907945 C114.253468,3.60907945 115.445145,4.98234552 115.445145,6.99495586 L115.445145,12.2421185 L114.185372,12.2421185 L114.185372,7.30517024 C114.185372,5.73896595 113.337957,4.75535939 111.847415,4.75535939 C110.394704,4.75535939 109.31652,5.8184111 109.31652,7.4035309 L109.31652,12.2421185 L108.056747,12.2421185 L108.056747,3.79066835 Z" id="Path"></path>
            </g>
            <polygon id="Path" fill="#140B5A" fill-rule="nonzero" points="244.800757 138.616646 238.274905 128.375788 239.920555 128.375788 245.508197 137.284994 251.099622 128.375788 252.688525 128.375788 246.162673 138.616646 246.162673 147.298865 244.800757 147.298865"></polygon>
            <path d="M263.383354,145.343001 C262.815889,146.061791 262.044136,146.625473 261.071879,147.030265 C260.099622,147.435057 259.100883,147.639344 258.079445,147.639344 C257.114754,147.639344 256.221942,147.472888 255.397226,147.143758 C254.576293,146.814628 253.868852,146.345523 253.282472,145.740227 C252.696091,145.134931 252.238335,144.412358 251.905422,143.568726 C251.572509,142.728878 251.409836,141.794451 251.409836,140.773014 C251.409836,139.827238 251.564943,138.938209 251.878941,138.105927 C252.192938,137.273644 252.620429,136.547289 253.168979,135.919294 C253.717528,135.295082 254.379571,134.803279 255.155107,134.443884 C255.930643,134.084489 256.781841,133.906683 257.708701,133.906683 C258.59773,133.906683 259.42623,134.061791 260.190416,134.375788 C260.958386,134.689786 261.620429,135.147541 262.176545,135.752837 C262.732661,136.358134 263.167718,137.110971 263.481715,138.007566 C263.795712,138.907945 263.95082,139.940731 263.95082,141.113493 L252.828499,141.113493 C252.847415,141.851198 252.98739,142.547289 253.252207,143.197982 C253.517024,143.852459 253.876419,144.419924 254.330391,144.900378 C254.784363,145.380832 255.32913,145.762926 255.960908,146.035309 C256.592686,146.311475 257.300126,146.447667 258.075662,146.447667 C258.472888,146.447667 258.885246,146.406053 259.308953,146.319042 C259.732661,146.23203 260.145019,146.107188 260.542245,145.936948 C260.93947,145.766709 261.302648,145.566204 261.635561,145.343001 C261.964691,145.116015 262.244641,144.858764 262.471627,144.575032 L263.383354,145.343001 Z M262.562421,140.008827 C262.392182,138.401009 261.881463,137.18285 261.030265,136.346784 C260.179067,135.514502 259.074401,135.098361 257.708701,135.098361 C257.008827,135.098361 256.369483,135.226986 255.794451,135.480454 C255.215637,135.733922 254.72005,136.08575 254.303909,136.528373 C253.887768,136.974779 253.551072,137.493064 253.297604,138.087011 C253.044136,138.680958 252.896595,139.320303 252.858764,140.001261 L262.562421,140.001261 L262.562421,140.008827 Z" id="Shape" fill="#140B5A" fill-rule="nonzero"></path>
            <path d="M276.151324,147.298865 C276.132409,147.034048 276.117276,146.742749 276.10971,146.417402 C276.098361,146.095839 276.094578,145.660782 276.094578,145.112232 C275.754098,145.604035 275.375788,146.016393 274.959647,146.345523 C274.543506,146.678436 274.123581,146.935687 273.696091,147.124842 C273.272383,147.313997 272.84111,147.446406 272.406053,147.522068 C271.970996,147.59773 271.57377,147.635561 271.214376,147.635561 C270.665826,147.635561 270.117276,147.578815 269.568726,147.465322 C269.020177,147.351828 268.528373,147.147541 268.093317,146.856242 C267.65826,146.564943 267.302648,146.167718 267.030265,145.664565 C266.754098,145.165195 266.617907,144.525851 266.617907,143.750315 C266.617907,143.126103 266.72005,142.535939 266.931904,141.97604 C267.139975,141.419924 267.469105,140.935687 267.923077,140.527112 C268.377049,140.12232 268.96343,139.800757 269.682219,139.562421 C270.401009,139.327869 271.271122,139.20681 272.29256,139.20681 C273.087011,139.20681 273.798235,139.237074 274.418663,139.293821 C275.042875,139.350567 275.572509,139.418663 276.007566,139.490542 L276.007566,138.752837 C276.007566,138.034048 275.924338,137.440101 275.754098,136.967213 C275.583859,136.494325 275.330391,136.116015 274.986129,135.832282 C274.645649,135.54855 274.229508,135.348045 273.737705,135.234552 C273.245902,135.121059 272.678436,135.064313 272.035309,135.064313 C270.957125,135.064313 270.102144,135.21942 269.466583,135.533417 C268.831021,135.843632 268.346784,136.142497 268.006305,136.42623 L267.325347,135.54855 C267.684741,135.208071 268.267339,134.848676 269.069357,134.470366 C269.871375,134.092055 270.851198,133.9029 272.005044,133.9029 C273.70744,133.9029 275.01261,134.262295 275.920555,134.981084 C276.828499,135.699874 277.282472,136.891551 277.282472,138.556116 L277.282472,144.571248 C277.282472,144.949559 277.282472,145.30517 277.282472,145.6343 C277.282472,145.967213 277.290038,146.254729 277.312736,146.500631 L277.369483,147.295082 L276.151324,147.295082 L276.151324,147.298865 Z M276.037831,140.633039 C275.640605,140.538462 275.145019,140.459016 274.547289,140.390921 C273.949559,140.326608 273.189155,140.29256 272.262295,140.29256 C271.297604,140.29256 270.529634,140.409836 269.962169,140.648172 C269.394704,140.886507 268.96343,141.177806 268.672131,141.525851 C268.377049,141.87768 268.191677,142.25599 268.104666,142.660782 C268.021438,143.069357 267.97604,143.432535 267.97604,143.754098 C267.97604,144.718789 268.293821,145.41488 268.925599,145.838588 C269.557377,146.262295 270.366961,146.477932 271.350567,146.477932 C271.993695,146.477932 272.598991,146.364439 273.166456,146.137453 C273.733922,145.910467 274.229508,145.607818 274.656999,145.229508 C275.080706,144.851198 275.417402,144.419924 275.663304,143.93947 C275.909206,143.459016 276.030265,142.970996 276.030265,142.479193 L276.030265,140.633039 L276.037831,140.633039 Z" id="Shape" fill="#140B5A" fill-rule="nonzero"></path>
            <path d="M281.23203,137.001261 C281.23203,136.641866 281.23203,136.335435 281.23203,136.078184 C281.23203,135.824716 281.23203,135.59773 281.23203,135.397226 C281.23203,135.196721 281.228247,135.011349 281.216898,134.82976 C281.205549,134.651955 281.194199,134.455233 281.175284,134.247163 L282.366961,134.247163 C282.385876,134.455233 282.401009,134.655738 282.408575,134.844893 C282.416141,135.034048 282.427491,135.238335 282.43884,135.453972 C282.446406,135.673392 282.453972,135.911728 282.453972,136.176545 C282.453972,136.441362 282.453972,136.755359 282.453972,137.114754 C282.605296,136.831021 282.809584,136.513241 283.063052,136.165195 C283.320303,135.81715 283.645649,135.48802 284.042875,135.185372 C284.440101,134.882724 284.901639,134.629256 285.431274,134.421185 C285.960908,134.213115 286.57377,134.107188 287.277427,134.107188 C287.693569,134.107188 288.052963,134.175284 288.355612,134.303909 L287.984868,135.525851 C287.852459,135.469105 287.697352,135.431274 287.515763,135.412358 C287.334174,135.393443 287.171501,135.382093 287.020177,135.382093 C286.339218,135.382093 285.722573,135.533417 285.174023,135.836066 C284.625473,136.138714 284.152585,136.535939 283.755359,137.027743 C283.358134,137.519546 283.051702,138.083228 282.832282,138.715006 C282.612863,139.350567 282.506936,139.986129 282.506936,140.629256 L282.506936,147.295082 L281.228247,147.295082 L281.228247,137.001261 L281.23203,137.001261 Z" id="Path" fill="#140B5A" fill-rule="nonzero"></path>
            <path d="M290.054224,144.745271 C290.602774,145.293821 291.230769,145.713745 291.941992,146.008827 C292.653216,146.303909 293.489281,146.447667 294.453972,146.447667 C294.983607,146.447667 295.482976,146.394704 295.955864,146.29256 C296.428752,146.190416 296.844893,146.039092 297.204288,145.838588 C297.563682,145.638083 297.847415,145.388398 298.055485,145.08575 C298.263556,144.783102 298.3657,144.423707 298.3657,144.007566 C298.3657,143.534678 298.271122,143.148802 298.081967,142.846154 C297.892812,142.543506 297.612863,142.293821 297.245902,142.093317 C296.875158,141.896595 296.413619,141.726356 295.857503,141.582598 C295.297604,141.43884 294.662043,141.283733 293.943253,141.113493 C293.337957,140.981084 292.785624,140.825977 292.282472,140.644388 C291.779319,140.466583 291.351828,140.24338 290.992434,139.978562 C290.633039,139.713745 290.349306,139.377049 290.141236,138.972257 C289.933165,138.567465 289.831021,138.06053 289.831021,137.455233 C289.831021,136.868852 289.96343,136.354351 290.228247,135.907945 C290.493064,135.465322 290.848676,135.090794 291.291299,134.788146 C291.733922,134.485498 292.244641,134.262295 292.823455,134.12232 C293.398487,133.978562 294,133.910467 294.624212,133.910467 C295.645649,133.910467 296.549811,134.099622 297.332913,134.477932 C298.116015,134.856242 298.755359,135.340479 299.247163,135.923077 L298.3657,136.717528 C297.911728,136.225725 297.385876,135.828499 296.791929,135.525851 C296.194199,135.223203 295.482976,135.071879 294.650694,135.071879 C294.234552,135.071879 293.818411,135.105927 293.40227,135.17024 C292.986129,135.238335 292.607818,135.359395 292.267339,135.540984 C291.92686,135.722573 291.654477,135.964691 291.446406,136.278689 C291.238335,136.592686 291.132409,137.001261 291.132409,137.51198 C291.132409,137.928121 291.249685,138.276166 291.48802,138.559899 C291.726356,138.843632 292.032787,139.081967 292.411097,139.271122 C292.789407,139.460277 293.224464,139.615385 293.716267,139.740227 C294.208071,139.865069 294.699874,139.982346 295.191677,140.095839 C295.721311,140.209332 296.254729,140.349306 296.795712,140.519546 C297.332913,140.689786 297.824716,140.912989 298.271122,141.185372 C298.713745,141.461538 299.07314,141.809584 299.349306,142.233291 C299.62169,142.656999 299.761665,143.194199 299.761665,143.837327 C299.761665,144.499369 299.61034,145.066835 299.307692,145.539723 C299.005044,146.01261 298.607818,146.406053 298.116015,146.716267 C297.624212,147.030265 297.068096,147.261034 296.443884,147.412358 C295.819672,147.563682 295.19546,147.639344 294.571248,147.639344 C293.34174,147.639344 292.297604,147.457755 291.435057,147.102144 C290.572509,146.742749 289.842371,146.262295 289.237074,145.653216 L290.054224,144.745271 Z" id="Path" fill="#140B5A" fill-rule="nonzero"></path>
            <path d="M225.760404,131.326608 C225.711223,132.885246 225.552333,134.337957 225.27995,135.673392 C224.943253,137.315259 224.45145,138.726356 223.796974,139.910467 C223.142497,141.094578 222.332913,142.010088 221.360656,142.664565 C220.388398,143.319042 219.2686,143.644388 217.997478,143.644388 C216.726356,143.644388 215.614124,143.319042 214.660782,142.664565 C213.70744,142.010088 212.905422,141.094578 212.250946,139.910467 C211.596469,138.726356 211.104666,137.315259 210.76797,135.673392 C210.593947,134.822194 210.469105,133.925599 210.382093,132.983607 C208.69483,132.964691 207.026482,132.881463 205.373266,132.733922 C205.490542,134.455233 205.732661,136.063052 206.107188,137.553594 C206.655738,139.74401 207.465322,141.612863 208.543506,143.167718 C209.62169,144.722573 210.945776,145.921816 212.515763,146.769231 C214.08575,147.616646 215.912989,148.040353 217.997478,148.040353 C220.044136,148.040353 221.863808,147.616646 223.452711,146.769231 C225.041614,145.921816 226.384615,144.722573 227.477932,143.167718 C228.571248,141.612863 229.392182,139.74401 229.940731,137.553594 C230.489281,135.363178 230.761665,132.92686 230.761665,130.244641 C230.761665,130.14628 230.757881,130.047919 230.757881,129.949559 C229.119798,130.47541 227.45145,130.933165 225.760404,131.326608 Z" id="Path" fill="#140B5A" fill-rule="nonzero"></path>
            <path d="M192.945776,130.392182 C191.311475,129.911728 189.703657,129.370744 188.126103,128.765448 L188.126103,143.061791 L182.194199,143.061791 L182.194199,147.298865 L198.771753,147.298865 L198.771753,143.061791 L192.945776,143.061791 L192.945776,130.392182 L192.945776,130.392182 Z" id="Path" fill="#140B5A" fill-rule="nonzero"></path>
            <path d="M210.385876,132.98739 C210.306431,132.10971 210.2686,131.197982 210.2686,130.244641 C210.2686,128.303909 210.435057,126.537201 210.771753,124.948298 C211.108449,123.359395 211.600252,122.008827 212.254729,120.896595 C212.909206,119.784363 213.711223,118.929382 214.664565,118.327869 C215.617907,117.726356 216.730139,117.427491 218.001261,117.427491 C219.272383,117.427491 220.384615,117.726356 221.337957,118.327869 C222.291299,118.929382 223.104666,119.784363 223.774275,120.896595 C224.443884,122.008827 224.947037,123.359395 225.283733,124.948298 C225.620429,126.537201 225.786885,128.303909 225.786885,130.244641 C225.786885,130.611602 225.775536,130.967213 225.764187,131.326608 C227.455233,130.933165 229.123581,130.47541 230.761665,129.953342 C230.742749,127.422446 230.470366,125.137453 229.944515,123.098361 C229.395965,120.979823 228.586381,119.171501 227.508197,117.669609 C226.430013,116.167718 225.098361,115.013871 223.509458,114.200504 C221.920555,113.387137 220.100883,112.982346 218.054224,112.982346 C215.969735,112.982346 214.142497,113.387137 212.572509,114.200504 C211.002522,115.013871 209.667087,116.167718 208.57377,117.669609 C207.480454,119.171501 206.659521,120.979823 206.110971,123.098361 C205.562421,125.216898 205.290038,127.600252 205.290038,130.248424 C205.290038,131.107188 205.320303,131.935687 205.377049,132.745271 C207.026482,132.889029 208.698613,132.968474 210.385876,132.98739 Z" id="Path" fill="#FFFFFF" fill-rule="nonzero"></path>
            <path d="M188.126103,119.069357 L188.126103,128.769231 C189.703657,129.370744 191.311475,129.915511 192.945776,130.395965 L192.945776,113.882724 L188.655738,113.882724 L179.281211,119.016393 L181.240858,122.776797 L188.126103,119.069357 Z" id="Path" fill="#FFFFFF" fill-rule="nonzero"></path>
        </g>
    </g>
</svg>