<?xml version="1.0" encoding="UTF-8"?>
<svg width="793px" height="443px" viewBox="0 0 793 443" version="1.1" xmlns="http://www.w3.org/2000/svg" xmlns:xlink="http://www.w3.org/1999/xlink">
    <!-- Generator: Sketch 53.2 (72643) - https://sketchapp.com -->
    <title>10-year-logo RGB v1 JF</title>
    <desc>Created with Sketch.</desc>
    <g id="Page-1" stroke="none" stroke-width="1" fill="none" fill-rule="evenodd">
        <g id="10-year-logo-RGB-v1-JF">
            <g id="Group">
                <path d="M470.08,227.83 C470.08,318.45 400.17,391.92 313.91,391.92 C227.65,391.92 157.73,318.45 157.73,227.83 C157.73,137.21 227.65,63.73 313.91,63.73 C400.16,63.73 470.08,137.2 470.08,227.83 Z" id="Path" fill="#781D7D"></path>
                <path d="M422.83,236.96 C422.83,350.43 328.18,442.44 211.42,442.44 C94.65,442.44 0,350.43 0,236.96 C0,123.46 94.65,31.46 211.42,31.46 C328.18,31.46 422.83,123.46 422.83,236.96 Z" id="Path" fill="#004580"></path>
                <path d="M731,175.97 C731,272.94 653.59,351.55 558.09,351.55 C462.6,351.55 385.18,272.94 385.18,175.97 C385.18,79.01 462.6,0.4 558.09,0.4 C653.59,0.4 731,79.01 731,175.97 Z" id="Path" fill="#5C88A1"></path>
                <g transform="translate(108.000000, 161.000000)" fill="#FFFFFF" fill-rule="nonzero">
                    <path d="M0.51,0.59 L23.46,0.59 C37.37,0.59 46.95,7.73 46.95,19.93 L46.95,20.11 C46.95,33.39 35.47,40.26 22.28,40.26 L5.2,40.26 L5.2,63.84 L0.5,63.84 L0.5,0.59 L0.51,0.59 Z M22.56,35.92 C34.31,35.92 42.26,29.78 42.26,20.38 L42.26,20.2 C42.26,10.17 34.49,4.93 23.1,4.93 L5.21,4.93 L5.21,35.92 L22.56,35.92 Z" id="Shape"></path>
                    <path d="M58.98,40.89 L58.98,40.71 C58.98,27.34 68.38,16.67 80.85,16.67 C93.77,16.67 101.99,27.15 101.99,40.8 C101.99,41.61 101.99,41.88 101.9,42.61 L63.68,42.61 C64.49,54.09 72.72,60.77 81.75,60.77 C88.89,60.77 93.77,57.61 97.56,53.54 L100.63,56.25 C95.93,61.31 90.42,64.92 81.56,64.92 C69.46,64.93 58.98,55.26 58.98,40.89 Z M97.2,38.63 C96.57,29.32 91.24,20.74 80.66,20.74 C71.53,20.74 64.49,28.42 63.67,38.63 L97.2,38.63 Z" id="Shape"></path>
                    <path d="M118.79,50.47 L118.79,50.29 C118.79,40.71 127.01,35.29 138.94,35.29 C145.36,35.29 149.78,36.1 154.21,37.28 L154.21,35.29 C154.21,25.98 148.52,21.19 139.03,21.19 C133.43,21.19 128.82,22.73 124.57,24.89 L122.94,21.01 C128,18.66 132.97,17.03 139.29,17.03 C145.53,17.03 150.49,18.75 153.84,22.09 C156.91,25.16 158.54,29.41 158.54,35.1 L158.54,63.83 L154.2,63.83 L154.2,56.15 C151.04,60.58 145.35,64.91 136.58,64.91 C128.01,64.93 118.79,60.05 118.79,50.47 Z M154.3,46.59 L154.3,41.35 C150.41,40.36 145.26,39.27 138.67,39.27 C128.91,39.27 123.49,43.61 123.49,50.02 L123.49,50.2 C123.49,56.89 129.81,60.77 136.86,60.77 C146.26,60.77 154.3,54.99 154.3,46.59 Z" id="Shape"></path>
                    <path d="M178.97,40.98 L178.97,40.8 C178.97,27.88 189.27,16.67 202.46,16.67 C211.13,16.67 216.56,20.65 220.89,25.16 L217.73,28.41 C213.75,24.34 209.24,20.82 202.37,20.82 C191.89,20.82 183.76,29.58 183.76,40.61 L183.76,40.79 C183.76,51.9 192.16,60.76 202.74,60.76 C209.25,60.76 214.31,57.42 218.19,53.08 L221.26,55.79 C216.56,61.12 210.96,64.92 202.47,64.92 C189.18,64.93 178.97,53.9 178.97,40.98 Z" id="Path"></path>
                    <path d="M238.25,40.89 L238.25,40.71 C238.25,27.34 247.65,16.67 260.12,16.67 C273.04,16.67 281.26,27.15 281.26,40.8 C281.26,41.61 281.26,41.88 281.17,42.61 L242.95,42.61 C243.76,54.09 251.99,60.77 261.02,60.77 C268.16,60.77 273.04,57.61 276.83,53.54 L279.9,56.25 C275.2,61.31 269.69,64.92 260.83,64.92 C248.73,64.93 238.25,55.26 238.25,40.89 Z M276.47,38.63 C275.84,29.32 270.51,20.74 259.94,20.74 C250.81,20.74 243.76,28.42 242.95,38.63 L276.47,38.63 Z" id="Shape"></path>
                    <polygon id="Path" points="302.85 0.59 307.28 0.59 350.92 55.62 350.92 0.59 355.44 0.59 355.44 63.84 351.92 63.84 307.37 7.64 307.37 63.84 302.85 63.84"></polygon>
                    <path d="M377.76,40.89 L377.76,40.71 C377.76,27.34 387.16,16.67 399.63,16.67 C412.55,16.67 420.77,27.15 420.77,40.8 C420.77,41.61 420.77,41.88 420.68,42.61 L382.46,42.61 C383.27,54.09 391.5,60.77 400.53,60.77 C407.67,60.77 412.55,57.61 416.34,53.54 L419.41,56.25 C414.71,61.31 409.2,64.92 400.35,64.92 C388.24,64.93 377.76,55.26 377.76,40.89 Z M415.98,38.63 C415.35,29.32 410.02,20.74 399.44,20.74 C390.31,20.74 383.27,28.42 382.45,38.63 L415.98,38.63 Z" id="Shape"></path>
                    <polygon id="Path" points="455.92 40.35 437.76 17.76 443.27 17.76 458.81 37.28 474.35 17.76 479.68 17.76 461.52 40.26 480.41 63.84 474.9 63.84 458.63 43.33 442.37 63.84 437.04 63.84"></polygon>
                    <path d="M499.65,45.95 L499.65,17.76 L504.08,17.76 L504.08,45.14 C504.08,54.63 509.41,60.86 518.72,60.86 C527.75,60.86 534.71,53.99 534.71,44.42 L534.71,17.76 L539.14,17.76 L539.14,63.84 L534.71,63.84 L534.71,55.26 C531.64,60.68 526.49,64.93 518.08,64.93 C506.43,64.93 499.65,56.98 499.65,45.95 Z" id="Path"></path>
                    <path d="M559.65,58.06 L562.27,54.54 C567.33,58.43 572.93,60.59 578.81,60.59 C585.04,60.59 589.92,57.16 589.92,51.82 L589.92,51.64 C589.92,46.22 584.14,44.23 577.72,42.42 C570.22,40.25 561.91,37.99 561.91,29.77 L561.91,29.59 C561.91,22.18 568.14,16.85 577.09,16.85 C582.6,16.85 588.84,18.84 593.44,21.91 L591.09,25.61 C586.84,22.81 581.78,21 576.9,21 C570.57,21 566.42,24.43 566.42,29.04 L566.42,29.22 C566.42,34.37 572.66,36.27 579.25,38.17 C586.66,40.25 594.43,42.96 594.43,51.09 L594.43,51.27 C594.43,59.49 587.38,64.73 578.53,64.73 C571.85,64.75 564.53,62.04 559.65,58.06 Z" id="Path"></path>
                </g>
                <g transform="translate(106.000000, 247.000000)" fill="#FFFFFF" fill-rule="nonzero">
                    <polygon id="Path" points="0.73 2.12 22.46 2.12 22.46 5.27 4.14 5.27 4.14 16.07 20.51 16.07 20.51 19.18 4.14 19.18 4.14 32.36 0.73 32.36"></polygon>
                    <path d="M34.41,21.3 L34.41,21.22 C34.41,14.91 39.33,9.55 46.07,9.55 C52.77,9.55 57.69,14.82 57.69,21.13 L57.69,21.22 C57.69,27.53 52.72,32.88 45.98,32.88 C39.29,32.88 34.41,27.61 34.41,21.3 Z M54.28,21.3 L54.28,21.22 C54.28,16.42 50.69,12.49 45.98,12.49 C41.14,12.49 37.82,16.42 37.82,21.13 L37.82,21.22 C37.82,26.01 41.36,29.9 46.07,29.9 C50.91,29.9 54.28,26.01 54.28,21.3 Z" id="Shape"></path>
                    <path d="M70.64,23.89 L70.64,10.02 L73.97,10.02 L73.97,23.07 C73.97,27.22 76.22,29.81 80.15,29.81 C83.95,29.81 86.85,27 86.85,22.81 L86.85,10.02 L90.13,10.02 L90.13,32.36 L86.85,32.36 L86.85,28.47 C85.34,30.89 83.05,32.83 79.2,32.83 C73.79,32.84 70.64,29.2 70.64,23.89 Z" id="Path"></path>
                    <path d="M104.88,10.02 L108.21,10.02 L108.21,13.91 C109.68,11.49 112.01,9.54 115.86,9.54 C121.26,9.54 124.41,13.17 124.41,18.49 L124.41,32.36 L121.08,32.36 L121.08,19.31 C121.08,15.17 118.84,12.57 114.9,12.57 C111.06,12.57 108.2,15.38 108.2,19.57 L108.2,32.36 L104.87,32.36 L104.87,10.02 L104.88,10.02 Z" id="Path"></path>
                    <path d="M137.48,21.26 L137.48,21.17 C137.48,13.87 142.8,9.55 148.15,9.55 C152.3,9.55 154.97,11.8 156.7,14.3 L156.7,0.82 L160.03,0.82 L160.03,32.36 L156.7,32.36 L156.7,27.86 C154.89,30.54 152.25,32.83 148.15,32.83 C142.8,32.84 137.48,28.6 137.48,21.26 Z M156.83,21.22 L156.83,21.13 C156.83,15.99 152.9,12.53 148.75,12.53 C144.43,12.53 140.89,15.73 140.89,21.13 L140.89,21.22 C140.89,26.49 144.52,29.86 148.75,29.86 C152.9,29.85 156.83,26.35 156.83,21.22 Z" id="Shape"></path>
                    <path d="M173.06,25.88 L173.06,25.8 C173.06,21.01 176.95,18.5 182.61,18.5 C185.46,18.5 187.45,18.89 189.44,19.45 L189.44,18.76 C189.44,14.78 187.02,12.71 182.83,12.71 C180.19,12.71 178.12,13.35 176.05,14.31 L175.06,11.59 C177.52,10.47 179.9,9.69 183.18,9.69 C186.33,9.69 188.79,10.55 190.39,12.15 C191.94,13.7 192.73,15.86 192.73,18.72 L192.73,32.37 L189.44,32.37 L189.44,29.04 C187.89,31.03 185.34,32.84 181.41,32.84 C177.21,32.84 173.06,30.46 173.06,25.88 Z M189.48,24.15 L189.48,22.08 C187.84,21.6 185.68,21.13 182.96,21.13 C178.81,21.13 176.44,22.95 176.44,25.62 L176.44,25.71 C176.44,28.52 179.03,30.16 182.06,30.16 C186.15,30.16 189.48,27.69 189.48,24.15 Z" id="Shape"></path>
                    <path d="M208.21,26.44 L208.21,12.97 L205.1,12.97 L205.1,10.03 L208.21,10.03 L208.21,3.29 L211.53,3.29 L211.53,10.03 L218.62,10.03 L218.62,12.97 L211.53,12.97 L211.53,26.02 C211.53,28.74 213.04,29.74 215.29,29.74 C216.41,29.74 217.36,29.52 218.53,28.96 L218.53,31.81 C217.36,32.41 216.11,32.76 214.51,32.76 C210.93,32.75 208.21,30.98 208.21,26.44 Z" id="Path"></path>
                    <path d="M231.87,1.47 L235.67,1.47 L235.67,5.15 L231.87,5.15 L231.87,1.47 Z M232.09,10.02 L235.42,10.02 L235.42,32.36 L232.09,32.36 L232.09,10.02 Z" id="Shape"></path>
                    <path d="M249.06,21.3 L249.06,21.22 C249.06,14.91 253.99,9.55 260.72,9.55 C267.42,9.55 272.34,14.82 272.34,21.13 L272.34,21.22 C272.34,27.53 267.37,32.88 260.63,32.88 C253.94,32.88 249.06,27.61 249.06,21.3 Z M268.93,21.3 L268.93,21.22 C268.93,16.42 265.34,12.49 260.63,12.49 C255.79,12.49 252.47,16.42 252.47,21.13 L252.47,21.22 C252.47,26.01 256.01,29.9 260.72,29.9 C265.56,29.9 268.93,26.01 268.93,21.3 Z" id="Shape"></path>
                    <path d="M285.63,10.02 L288.96,10.02 L288.96,13.91 C290.43,11.49 292.76,9.54 296.61,9.54 C302.01,9.54 305.16,13.17 305.16,18.49 L305.16,32.36 L301.83,32.36 L301.83,19.31 C301.83,15.17 299.59,12.57 295.65,12.57 C291.81,12.57 288.96,15.38 288.96,19.57 L288.96,32.36 L285.63,32.36 L285.63,10.02 Z" id="Path"></path>
                </g>
            </g>
            <polygon id="Path" fill="#140B5A" fill-rule="nonzero" points="647.09 366.41 629.84 339.34 634.19 339.34 648.96 362.89 663.74 339.34 667.94 339.34 650.69 366.41 650.69 389.36 647.09 389.36"></polygon>
            <path d="M696.21,384.19 C694.71,386.09 692.67,387.58 690.1,388.65 C687.53,389.72 684.89,390.26 682.19,390.26 C679.64,390.26 677.28,389.82 675.1,388.95 C672.93,388.08 671.06,386.84 669.51,385.24 C667.96,383.64 666.75,381.73 665.87,379.5 C664.99,377.28 664.56,374.81 664.56,372.11 C664.56,369.61 664.97,367.26 665.8,365.06 C666.63,362.86 667.76,360.94 669.21,359.28 C670.66,357.63 672.41,356.33 674.46,355.38 C676.51,354.43 678.76,353.96 681.21,353.96 C683.56,353.96 685.75,354.37 687.77,355.2 C689.8,356.03 691.55,357.24 693.02,358.84 C694.49,360.44 695.64,362.43 696.47,364.8 C697.3,367.18 697.71,369.91 697.71,373.01 L668.31,373.01 C668.36,374.96 668.73,376.8 669.43,378.52 C670.13,380.25 671.08,381.75 672.28,383.02 C673.48,384.29 674.92,385.3 676.59,386.02 C678.26,386.75 680.13,387.11 682.18,387.11 C683.23,387.11 684.32,387 685.44,386.77 C686.56,386.54 687.65,386.21 688.7,385.76 C689.75,385.31 690.71,384.78 691.59,384.19 C692.46,383.59 693.2,382.91 693.8,382.16 L696.21,384.19 Z M694.04,370.09 C693.59,365.84 692.24,362.62 689.99,360.41 C687.74,358.21 684.82,357.11 681.21,357.11 C679.36,357.11 677.67,357.45 676.15,358.12 C674.62,358.79 673.31,359.72 672.21,360.89 C671.11,362.07 670.22,363.44 669.55,365.01 C668.88,366.58 668.49,368.27 668.39,370.07 L694.04,370.07 L694.04,370.09 Z" id="Shape" fill="#140B5A" fill-rule="nonzero"></path>
            <path d="M729.96,389.36 C729.91,388.66 729.87,387.89 729.85,387.03 C729.82,386.18 729.81,385.03 729.81,383.58 C728.91,384.88 727.91,385.97 726.81,386.84 C725.71,387.72 724.6,388.4 723.47,388.9 C722.35,389.4 721.21,389.75 720.06,389.95 C718.91,390.15 717.86,390.25 716.91,390.25 C715.46,390.25 714.01,390.1 712.56,389.8 C711.11,389.5 709.81,388.96 708.66,388.19 C707.51,387.42 706.57,386.37 705.85,385.04 C705.12,383.72 704.76,382.03 704.76,379.98 C704.76,378.33 705.03,376.77 705.59,375.29 C706.14,373.82 707.01,372.54 708.21,371.46 C709.41,370.39 710.96,369.54 712.86,368.91 C714.76,368.29 717.06,367.97 719.76,367.97 C721.86,367.97 723.74,368.05 725.38,368.2 C727.03,368.35 728.43,368.53 729.58,368.72 L729.58,366.77 C729.58,364.87 729.36,363.3 728.91,362.05 C728.46,360.8 727.79,359.8 726.88,359.05 C725.98,358.3 724.88,357.77 723.58,357.47 C722.28,357.17 720.78,357.02 719.08,357.02 C716.23,357.02 713.97,357.43 712.29,358.26 C710.61,359.08 709.33,359.87 708.43,360.62 L706.63,358.3 C707.58,357.4 709.12,356.45 711.24,355.45 C713.36,354.45 715.95,353.95 719,353.95 C723.5,353.95 726.95,354.9 729.35,356.8 C731.75,358.7 732.95,361.85 732.95,366.25 L732.95,382.15 C732.95,383.15 732.95,384.09 732.95,384.96 C732.95,385.84 732.97,386.6 733.03,387.25 L733.18,389.35 L729.96,389.35 L729.96,389.36 Z M729.66,371.74 C728.61,371.49 727.3,371.28 725.72,371.1 C724.14,370.93 722.13,370.84 719.68,370.84 C717.13,370.84 715.1,371.15 713.6,371.78 C712.1,372.41 710.96,373.18 710.19,374.1 C709.41,375.03 708.92,376.03 708.69,377.1 C708.47,378.18 708.35,379.14 708.35,379.99 C708.35,382.54 709.19,384.38 710.86,385.5 C712.53,386.62 714.67,387.19 717.27,387.19 C718.97,387.19 720.57,386.89 722.07,386.29 C723.57,385.69 724.88,384.89 726.01,383.89 C727.13,382.89 728.02,381.75 728.67,380.48 C729.32,379.21 729.64,377.92 729.64,376.62 L729.64,371.74 L729.66,371.74 Z" id="Shape" fill="#140B5A" fill-rule="nonzero"></path>
            <path d="M743.39,362.14 C743.39,361.19 743.39,360.38 743.39,359.7 C743.39,359.03 743.39,358.43 743.39,357.9 C743.39,357.37 743.38,356.88 743.35,356.4 C743.32,355.93 743.29,355.41 743.24,354.86 L746.39,354.86 C746.44,355.41 746.48,355.94 746.5,356.44 C746.52,356.94 746.55,357.48 746.58,358.05 C746.6,358.63 746.62,359.26 746.62,359.96 C746.62,360.66 746.62,361.49 746.62,362.44 C747.02,361.69 747.56,360.85 748.23,359.93 C748.91,359.01 749.77,358.14 750.82,357.34 C751.87,356.54 753.09,355.87 754.49,355.32 C755.89,354.77 757.51,354.49 759.37,354.49 C760.47,354.49 761.42,354.67 762.22,355.01 L761.24,358.24 C760.89,358.09 760.48,357.99 760,357.94 C759.52,357.89 759.09,357.86 758.69,357.86 C756.89,357.86 755.26,358.26 753.81,359.06 C752.36,359.86 751.11,360.91 750.06,362.21 C749.01,363.51 748.2,365 747.62,366.67 C747.04,368.35 746.76,370.03 746.76,371.73 L746.76,389.35 L743.38,389.35 L743.38,362.14 L743.39,362.14 Z" id="Path" fill="#140B5A" fill-rule="nonzero"></path>
            <path d="M766.71,382.61 C768.16,384.06 769.82,385.17 771.7,385.95 C773.58,386.73 775.79,387.11 778.34,387.11 C779.74,387.11 781.06,386.97 782.31,386.7 C783.56,386.43 784.66,386.03 785.61,385.5 C786.56,384.97 787.31,384.31 787.86,383.51 C788.41,382.71 788.68,381.76 788.68,380.66 C788.68,379.41 788.43,378.39 787.93,377.59 C787.43,376.79 786.69,376.13 785.72,375.6 C784.74,375.08 783.52,374.63 782.05,374.25 C780.57,373.87 778.89,373.46 776.99,373.01 C775.39,372.66 773.93,372.25 772.6,371.77 C771.27,371.3 770.14,370.71 769.19,370.01 C768.24,369.31 767.49,368.42 766.94,367.35 C766.39,366.28 766.12,364.94 766.12,363.34 C766.12,361.79 766.47,360.43 767.17,359.25 C767.87,358.08 768.81,357.09 769.98,356.29 C771.15,355.49 772.5,354.9 774.03,354.53 C775.55,354.15 777.14,353.97 778.79,353.97 C781.49,353.97 783.88,354.47 785.95,355.47 C788.02,356.47 789.71,357.75 791.01,359.29 L788.68,361.39 C787.48,360.09 786.09,359.04 784.52,358.24 C782.94,357.44 781.06,357.04 778.86,357.04 C777.76,357.04 776.66,357.13 775.56,357.3 C774.46,357.48 773.46,357.8 772.56,358.28 C771.66,358.76 770.94,359.4 770.39,360.23 C769.84,361.06 769.56,362.14 769.56,363.49 C769.56,364.59 769.87,365.51 770.5,366.26 C771.13,367.01 771.94,367.64 772.94,368.14 C773.94,368.64 775.09,369.05 776.39,369.38 C777.69,369.71 778.99,370.02 780.29,370.32 C781.69,370.62 783.1,370.99 784.53,371.44 C785.95,371.89 787.25,372.48 788.43,373.2 C789.6,373.93 790.55,374.85 791.28,375.97 C792,377.09 792.37,378.51 792.37,380.21 C792.37,381.96 791.97,383.46 791.17,384.71 C790.37,385.96 789.32,387 788.02,387.82 C786.72,388.65 785.25,389.26 783.6,389.66 C781.95,390.06 780.3,390.26 778.65,390.26 C775.4,390.26 772.64,389.78 770.36,388.84 C768.08,387.89 766.15,386.62 764.55,385.01 L766.71,382.61 Z" id="Path" fill="#140B5A" fill-rule="nonzero"></path>
            <path d="M596.76,347.14 C596.63,351.26 596.21,355.1 595.49,358.63 C594.6,362.97 593.3,366.7 591.57,369.83 C589.84,372.96 587.7,375.38 585.13,377.11 C582.56,378.84 579.6,379.7 576.24,379.7 C572.88,379.7 569.94,378.84 567.42,377.11 C564.9,375.38 562.78,372.96 561.05,369.83 C559.32,366.7 558.02,362.97 557.13,358.63 C556.67,356.38 556.34,354.01 556.11,351.52 C551.65,351.47 547.24,351.25 542.87,350.86 C543.18,355.41 543.82,359.66 544.81,363.6 C546.26,369.39 548.4,374.33 551.25,378.44 C554.1,382.55 557.6,385.72 561.75,387.96 C565.9,390.2 570.73,391.32 576.24,391.32 C581.65,391.32 586.46,390.2 590.66,387.96 C594.86,385.72 598.41,382.55 601.3,378.44 C604.19,374.33 606.36,369.39 607.81,363.6 C609.26,357.81 609.98,351.37 609.98,344.28 C609.98,344.02 609.97,343.76 609.97,343.5 C605.64,344.89 601.23,346.1 596.76,347.14 Z" id="Path" fill="#140B5A" fill-rule="nonzero"></path>
            <path d="M510.02,344.67 C505.7,343.4 501.45,341.97 497.28,340.37 L497.28,378.16 L481.6,378.16 L481.6,389.36 L525.42,389.36 L525.42,378.16 L510.02,378.16 L510.02,344.67 L510.02,344.67 Z" id="Path" fill="#140B5A" fill-rule="nonzero"></path>
            <path d="M556.12,351.53 C555.91,349.21 555.81,346.8 555.81,344.28 C555.81,339.15 556.25,334.48 557.14,330.28 C558.03,326.08 559.33,322.51 561.06,319.57 C562.79,316.63 564.91,314.37 567.43,312.78 C569.95,311.19 572.89,310.4 576.25,310.4 C579.61,310.4 582.55,311.19 585.07,312.78 C587.59,314.37 589.74,316.63 591.51,319.57 C593.28,322.51 594.61,326.08 595.5,330.28 C596.39,334.48 596.83,339.15 596.83,344.28 C596.83,345.25 596.8,346.19 596.77,347.14 C601.24,346.1 605.65,344.89 609.98,343.51 C609.93,336.82 609.21,330.78 607.82,325.39 C606.37,319.79 604.23,315.01 601.38,311.04 C598.53,307.07 595.01,304.02 590.81,301.87 C586.61,299.72 581.8,298.65 576.39,298.65 C570.88,298.65 566.05,299.72 561.9,301.87 C557.75,304.02 554.22,307.07 551.33,311.04 C548.44,315.01 546.27,319.79 544.82,325.39 C543.37,330.99 542.65,337.29 542.65,344.29 C542.65,346.56 542.73,348.75 542.88,350.89 C547.24,351.27 551.66,351.48 556.12,351.53 Z" id="Path" fill="#FFFFFF" fill-rule="nonzero"></path>
            <path d="M497.28,314.74 L497.28,340.38 C501.45,341.97 505.7,343.41 510.02,344.68 L510.02,301.03 L498.68,301.03 L473.9,314.6 L479.08,324.54 L497.28,314.74 Z" id="Path" fill="#FFFFFF" fill-rule="nonzero"></path>
        </g>
    </g>
</svg>