<?xml version="1.0" encoding="utf-8"?>
<!-- Generator: Adobe Illustrator 23.0.3, SVG Export Plug-In . SVG Version: 6.00 Build 0)  -->
<svg version="1.2" baseProfile="tiny" id="Layer_1" xmlns="http://www.w3.org/2000/svg" xmlns:xlink="http://www.w3.org/1999/xlink"
	 x="0px" y="0px" viewBox="0 0 948 540" xml:space="preserve">
<g>
	<path fill-rule="evenodd" fill="#781D7D" d="M491.41,172.13c0.02,0.03,0.04,0.06,0.06,0.1
		C491.45,172.2,491.44,172.17,491.41,172.13c3.31-12.13,7.85-23.74,13.5-34.67c-22.63-17.08-49.79-27.97-79.23-30.27
		c0.09,0.01,0.18,0.01,0.27,0.02c26.48,16.62,48.87,38.85,65.45,64.94c-0.03,0.12-0.06,0.24-0.09,0.36
		C491.35,172.39,491.38,172.26,491.41,172.13z"/>
	<path fill-rule="evenodd" fill="#781D7D" d="M548.23,354.56c-11.25-9.41-21.3-20.25-29.91-32.22
		c-8.9,41.26-30.54,77.97-60.74,106.07c43.34-13.24,78.89-45.68,97.77-87.97C553.2,345.28,550.82,349.99,548.23,354.56z"/>
</g>
<path fill-rule="evenodd" fill="#040042" d="M518.32,322.33c2.95-13.68,4.51-27.85,4.51-42.38c0-39.55-11.5-76.48-31.42-107.82
	c-4.06,14.91-6.23,30.62-6.23,46.84C485.18,257.61,497.48,293.33,518.32,322.33z"/>
<g>
	<path fill-rule="evenodd" fill="#3E0258" d="M504.92,137.47c-5.65,10.93-10.2,22.54-13.5,34.68
		c19.91,31.34,31.41,68.27,31.41,107.82c0,14.53-1.56,28.7-4.51,42.37c8.61,11.98,18.66,22.82,29.91,32.23
		c13.87-24.52,21.85-53.14,21.85-83.74C570.08,215.88,544.38,167.25,504.92,137.47z"/>
</g>
<g>
	<path fill-rule="evenodd" fill="#140B5A" d="M518.32,322.33c-20.83-29-33.14-64.72-33.14-103.36c0-16.21,2.18-31.91,6.23-46.82
		c-16.58-26.09-38.97-48.32-65.45-64.94c-3.98-0.32-8-0.48-12.05-0.48c-86.26,0-156.18,73.47-156.18,164.1
		c0,90.62,69.92,164.09,156.18,164.09c15.16,0,29.82-2.28,43.68-6.51c40.2-37.41,65.24-90.09,65.24-148.45
		C522.83,294.49,521.27,308.66,518.32,322.33z"/>
</g>
<path fill-rule="evenodd" fill="#5C88A1" d="M658.09,43.4c-66.52,0-124.25,38.15-153.17,94.07c39.46,29.78,65.16,78.42,65.16,133.36
	c0,30.59-7.98,59.22-21.85,83.74c29.87,24.98,68.14,39.99,109.86,39.99c95.5,0,172.91-78.61,172.91-175.58
	C831,122.01,753.59,43.4,658.09,43.4z"/>
<path fill-rule="evenodd" fill="#004580" d="M413.91,434.92c-86.26,0-156.18-73.47-156.18-164.09c0-90.62,69.92-164.1,156.18-164.1
	c4.06,0,8.08,0.16,12.05,0.48c-33.01-20.72-72.33-32.75-114.54-32.75c-116.77,0-211.42,92-211.42,205.5
	c0,113.47,94.65,205.48,211.42,205.48c56.71,0,108.2-21.71,146.17-57.03C443.73,432.64,429.07,434.92,413.91,434.92z"/>
<g>
	<path fill="#FFFFFF" stroke="#FFFFFF" stroke-miterlimit="10" d="M208.51,204.59h22.95c13.91,0,23.49,7.14,23.49,19.34v0.18
		c0,13.28-11.48,20.15-24.67,20.15h-17.08v23.58h-4.7V204.59z M230.56,239.92c11.75,0,19.7-6.14,19.7-15.54v-0.18
		c0-10.03-7.77-15.27-19.16-15.27h-17.89v30.99H230.56z"/>
	<path fill="#FFFFFF" stroke="#FFFFFF" stroke-miterlimit="10" d="M266.98,244.89v-0.18c0-13.37,9.4-24.04,21.87-24.04
		c12.92,0,21.14,10.48,21.14,24.13c0,0.81,0,1.08-0.09,1.81h-38.22c0.81,11.48,9.04,18.16,18.07,18.16c7.14,0,12.02-3.16,15.81-7.23
		l3.07,2.71c-4.7,5.06-10.21,8.67-19.07,8.67C277.46,268.93,266.98,259.26,266.98,244.89z M305.2,242.63
		c-0.63-9.31-5.96-17.89-16.54-17.89c-9.13,0-16.17,7.68-16.99,17.89H305.2z"/>
	<path fill="#FFFFFF" stroke="#FFFFFF" stroke-miterlimit="10" d="M326.79,254.47v-0.18c0-9.58,8.22-15,20.15-15
		c6.42,0,10.84,0.81,15.27,1.99v-1.99c0-9.31-5.69-14.1-15.18-14.1c-5.6,0-10.21,1.54-14.46,3.7l-1.63-3.88
		c5.06-2.35,10.03-3.98,16.35-3.98c6.24,0,11.2,1.72,14.55,5.06c3.07,3.07,4.7,7.32,4.7,13.01v28.73h-4.34v-7.68
		c-3.16,4.43-8.85,8.76-17.62,8.76C336.01,268.93,326.79,264.05,326.79,254.47z M362.3,250.59v-5.24
		c-3.89-0.99-9.04-2.08-15.63-2.08c-9.76,0-15.18,4.34-15.18,10.75v0.18c0,6.69,6.32,10.57,13.37,10.57
		C354.26,264.77,362.3,258.99,362.3,250.59z"/>
	<path fill="#FFFFFF" stroke="#FFFFFF" stroke-miterlimit="10" d="M386.97,244.98v-0.18c0-12.92,10.3-24.13,23.49-24.13
		c8.67,0,14.1,3.98,18.43,8.49l-3.16,3.25c-3.98-4.07-8.49-7.59-15.36-7.59c-10.48,0-18.61,8.76-18.61,19.79v0.18
		c0,11.11,8.4,19.97,18.98,19.97c6.51,0,11.57-3.34,15.45-7.68l3.07,2.71c-4.7,5.33-10.3,9.13-18.79,9.13
		C397.18,268.93,386.97,257.9,386.97,244.98z"/>
	<path fill="#FFFFFF" stroke="#FFFFFF" stroke-miterlimit="10" d="M446.25,244.89v-0.18c0-13.37,9.4-24.04,21.87-24.04
		c12.92,0,21.14,10.48,21.14,24.13c0,0.81,0,1.08-0.09,1.81h-38.22c0.81,11.48,9.04,18.16,18.07,18.16c7.14,0,12.02-3.16,15.81-7.23
		l3.07,2.71c-4.7,5.06-10.21,8.67-19.07,8.67C456.73,268.93,446.25,259.26,446.25,244.89z M484.47,242.63
		c-0.63-9.31-5.96-17.89-16.53-17.89c-9.13,0-16.18,7.68-16.99,17.89H484.47z"/>
	<path fill="#FFFFFF" stroke="#FFFFFF" stroke-miterlimit="10" d="M510.85,204.59h4.43l43.64,55.03v-55.03h4.52v63.25h-3.52
		l-44.55-56.2v56.2h-4.52V204.59z"/>
	<path fill="#FFFFFF" stroke="#FFFFFF" stroke-miterlimit="10" d="M585.76,244.89v-0.18c0-13.37,9.4-24.04,21.87-24.04
		c12.92,0,21.14,10.48,21.14,24.13c0,0.81,0,1.08-0.09,1.81h-38.22c0.81,11.48,9.04,18.16,18.07,18.16c7.14,0,12.02-3.16,15.81-7.23
		l3.07,2.71c-4.7,5.06-10.21,8.67-19.06,8.67C596.24,268.93,585.76,259.26,585.76,244.89z M623.98,242.63
		c-0.63-9.31-5.96-17.89-16.54-17.89c-9.13,0-16.17,7.68-16.99,17.89H623.98z"/>
	<path fill="#FFFFFF" stroke="#FFFFFF" stroke-miterlimit="10" d="M663.92,244.35l-18.16-22.59h5.51l15.54,19.52l15.54-19.52h5.33
		l-18.16,22.5l18.89,23.58h-5.51l-16.27-20.51l-16.26,20.51h-5.33L663.92,244.35z"/>
	<path fill="#FFFFFF" stroke="#FFFFFF" stroke-miterlimit="10" d="M707.65,249.95v-28.19h4.43v27.38c0,9.49,5.33,15.72,14.64,15.72
		c9.03,0,15.99-6.87,15.99-16.44v-26.66h4.43v46.08h-4.43v-8.58c-3.07,5.42-8.22,9.67-16.63,9.67
		C714.43,268.93,707.65,260.98,707.65,249.95z"/>
	<path fill="#FFFFFF" stroke="#FFFFFF" stroke-miterlimit="10" d="M767.65,262.06l2.62-3.52c5.06,3.89,10.66,6.05,16.54,6.05
		c6.23,0,11.11-3.43,11.11-8.77v-0.18c0-5.42-5.78-7.41-12.2-9.22c-7.5-2.17-15.81-4.43-15.81-12.65v-0.18
		c0-7.41,6.23-12.74,15.18-12.74c5.51,0,11.75,1.99,16.35,5.06l-2.35,3.7c-4.25-2.8-9.31-4.61-14.19-4.61
		c-6.33,0-10.48,3.43-10.48,8.04v0.18c0,5.15,6.24,7.05,12.83,8.95c7.41,2.08,15.18,4.79,15.18,12.92v0.18
		c0,8.22-7.05,13.46-15.9,13.46C779.85,268.75,772.53,266.04,767.65,262.06z"/>
</g>
<g>
	<path fill="#FFFFFF" stroke="#FFFFFF" stroke-miterlimit="10" d="M206.73,292.12h21.73v3.15h-18.32v10.8h16.37v3.11h-16.37v13.18
		h-3.41V292.12z"/>
	<path fill="#FFFFFF" stroke="#FFFFFF" stroke-miterlimit="10" d="M240.41,311.3v-0.08c0-6.31,4.92-11.67,11.66-11.67
		c6.7,0,11.62,5.27,11.62,11.58v0.09c0,6.31-4.97,11.66-11.71,11.66C245.29,322.88,240.41,317.61,240.41,311.3z M260.28,311.3v-0.08
		c0-4.8-3.59-8.73-8.3-8.73c-4.84,0-8.16,3.93-8.16,8.64v0.09c0,4.79,3.54,8.68,8.25,8.68C256.91,319.9,260.28,316.01,260.28,311.3z
		"/>
	<path fill="#FFFFFF" stroke="#FFFFFF" stroke-miterlimit="10" d="M276.64,313.89v-13.87h3.33v13.05c0,4.15,2.25,6.74,6.18,6.74
		c3.8,0,6.7-2.81,6.7-7v-12.79h3.28v22.34h-3.28v-3.89c-1.51,2.42-3.8,4.36-7.65,4.36C279.79,322.84,276.64,319.2,276.64,313.89z"/>
	<path fill="#FFFFFF" stroke="#FFFFFF" stroke-miterlimit="10" d="M310.88,300.02h3.33v3.89c1.47-2.42,3.8-4.37,7.65-4.37
		c5.4,0,8.55,3.63,8.55,8.95v13.87h-3.33v-13.05c0-4.14-2.24-6.74-6.18-6.74c-3.84,0-6.7,2.81-6.7,7v12.79h-3.33V300.02z"/>
	<path fill="#FFFFFF" stroke="#FFFFFF" stroke-miterlimit="10" d="M343.48,311.26v-0.09c0-7.3,5.32-11.62,10.67-11.62
		c4.15,0,6.82,2.25,8.55,4.75v-13.48h3.33v31.54h-3.33v-4.5c-1.81,2.68-4.45,4.97-8.55,4.97
		C348.8,322.84,343.48,318.6,343.48,311.26z M362.83,311.22v-0.09c0-5.14-3.93-8.6-8.08-8.6c-4.32,0-7.86,3.2-7.86,8.6v0.09
		c0,5.27,3.63,8.64,7.86,8.64C358.9,319.85,362.83,316.35,362.83,311.22z"/>
	<path fill="#FFFFFF" stroke="#FFFFFF" stroke-miterlimit="10" d="M379.06,315.88v-0.08c0-4.79,3.89-7.3,9.55-7.3
		c2.85,0,4.84,0.39,6.83,0.95v-0.69c0-3.98-2.42-6.05-6.61-6.05c-2.64,0-4.71,0.64-6.78,1.6l-0.99-2.72c2.46-1.12,4.84-1.9,8.12-1.9
		c3.15,0,5.61,0.86,7.21,2.46c1.55,1.55,2.34,3.71,2.34,6.57v13.65h-3.29v-3.33c-1.55,1.99-4.1,3.8-8.03,3.8
		C383.21,322.84,379.06,320.46,379.06,315.88z M395.48,314.15v-2.07c-1.64-0.48-3.8-0.95-6.52-0.95c-4.15,0-6.52,1.82-6.52,4.49
		v0.09c0,2.81,2.59,4.45,5.62,4.45C392.15,320.16,395.48,317.69,395.48,314.15z"/>
	<path fill="#FFFFFF" stroke="#FFFFFF" stroke-miterlimit="10" d="M414.21,316.44v-13.47h-3.11v-2.94h3.11v-6.74h3.32v6.74h7.09
		v2.94h-7.09v13.05c0,2.72,1.51,3.72,3.76,3.72c1.12,0,2.07-0.22,3.24-0.78v2.85c-1.17,0.6-2.42,0.95-4.02,0.95
		C416.93,322.75,414.21,320.98,414.21,316.44z"/>
	<path fill="#FFFFFF" stroke="#FFFFFF" stroke-miterlimit="10" d="M437.87,291.47h3.8v3.68h-3.8V291.47z M438.09,300.02h3.33v22.34
		h-3.33V300.02z"/>
	<path fill="#FFFFFF" stroke="#FFFFFF" stroke-miterlimit="10" d="M455.06,311.3v-0.08c0-6.31,4.93-11.67,11.66-11.67
		c6.7,0,11.62,5.27,11.62,11.58v0.09c0,6.31-4.97,11.66-11.71,11.66C459.94,322.88,455.06,317.61,455.06,311.3z M474.93,311.3v-0.08
		c0-4.8-3.59-8.73-8.3-8.73c-4.84,0-8.16,3.93-8.16,8.64v0.09c0,4.79,3.54,8.68,8.25,8.68C471.56,319.9,474.93,316.01,474.93,311.3z
		"/>
	<path fill="#FFFFFF" stroke="#FFFFFF" stroke-miterlimit="10" d="M491.63,300.02h3.33v3.89c1.47-2.42,3.8-4.37,7.65-4.37
		c5.4,0,8.55,3.63,8.55,8.95v13.87h-3.33v-13.05c0-4.14-2.24-6.74-6.18-6.74c-3.84,0-6.69,2.81-6.69,7v12.79h-3.33V300.02z"/>
</g>
<path fill="#140B5A" d="M747.09,409.41l-17.25-27.07h4.35l14.77,23.55l14.78-23.55h4.2l-17.25,27.07v22.95h-3.6V409.41z"/>
<path fill="#140B5A" d="M796.21,427.19c-1.5,1.9-3.54,3.39-6.11,4.46s-5.21,1.61-7.91,1.61c-2.55,0-4.91-0.44-7.09-1.31
	c-2.17-0.87-4.04-2.11-5.59-3.71c-1.55-1.6-2.76-3.51-3.64-5.74c-0.88-2.22-1.31-4.69-1.31-7.39c0-2.5,0.41-4.85,1.24-7.05
	c0.83-2.2,1.96-4.12,3.41-5.78c1.45-1.65,3.2-2.95,5.25-3.9c2.05-0.95,4.3-1.42,6.75-1.42c2.35,0,4.54,0.41,6.56,1.24
	c2.03,0.83,3.78,2.04,5.25,3.64c1.47,1.6,2.62,3.59,3.45,5.96c0.83,2.38,1.24,5.11,1.24,8.21h-29.4c0.05,1.95,0.42,3.79,1.12,5.51
	c0.7,1.73,1.65,3.23,2.85,4.5s2.64,2.28,4.31,3c1.67,0.73,3.54,1.09,5.59,1.09c1.05,0,2.14-0.11,3.26-0.34s2.21-0.56,3.26-1.01
	c1.05-0.45,2.01-0.98,2.89-1.57c0.87-0.6,1.61-1.28,2.21-2.03L796.21,427.19z M794.04,413.09c-0.45-4.25-1.8-7.47-4.05-9.68
	c-2.25-2.2-5.17-3.3-8.78-3.3c-1.85,0-3.54,0.34-5.06,1.01c-1.53,0.67-2.84,1.6-3.94,2.77c-1.1,1.18-1.99,2.55-2.66,4.12
	c-0.67,1.57-1.06,3.26-1.16,5.06H794.04z"/>
<path fill="#140B5A" d="M829.96,432.36c-0.05-0.7-0.09-1.47-0.11-2.33c-0.03-0.85-0.04-2-0.04-3.45c-0.9,1.3-1.9,2.39-3,3.26
	c-1.1,0.88-2.21,1.56-3.34,2.06c-1.12,0.5-2.26,0.85-3.41,1.05c-1.15,0.2-2.2,0.3-3.15,0.3c-1.45,0-2.9-0.15-4.35-0.45
	c-1.45-0.3-2.75-0.84-3.9-1.61c-1.15-0.77-2.09-1.82-2.81-3.15c-0.73-1.32-1.09-3.01-1.09-5.06c0-1.65,0.27-3.21,0.83-4.69
	c0.55-1.47,1.42-2.75,2.62-3.83c1.2-1.07,2.75-1.92,4.65-2.55c1.9-0.62,4.2-0.94,6.9-0.94c2.1,0,3.98,0.08,5.62,0.23
	c1.65,0.15,3.05,0.33,4.2,0.52v-1.95c0-1.9-0.22-3.47-0.67-4.72c-0.45-1.25-1.12-2.25-2.03-3c-0.9-0.75-2-1.28-3.3-1.58
	c-1.3-0.3-2.8-0.45-4.5-0.45c-2.85,0-5.11,0.41-6.79,1.24c-1.68,0.82-2.96,1.61-3.86,2.36l-1.8-2.32c0.95-0.9,2.49-1.85,4.61-2.85
	c2.12-1,4.71-1.5,7.76-1.5c4.5,0,7.95,0.95,10.35,2.85c2.4,1.9,3.6,5.05,3.6,9.45v15.9c0,1,0,1.94,0,2.81
	c0,0.88,0.02,1.64,0.08,2.29l0.15,2.1H829.96z M829.66,414.74c-1.05-0.25-2.36-0.46-3.94-0.64c-1.58-0.17-3.59-0.26-6.04-0.26
	c-2.55,0-4.58,0.31-6.08,0.94c-1.5,0.63-2.64,1.4-3.41,2.32c-0.78,0.93-1.27,1.93-1.5,3c-0.22,1.08-0.34,2.04-0.34,2.89
	c0,2.55,0.84,4.39,2.51,5.51c1.67,1.12,3.81,1.69,6.41,1.69c1.7,0,3.3-0.3,4.8-0.9c1.5-0.6,2.81-1.4,3.94-2.4
	c1.12-1,2.01-2.14,2.66-3.41c0.65-1.27,0.97-2.56,0.97-3.86V414.74z"/>
<path fill="#140B5A" d="M843.39,405.14c0-0.95,0-1.76,0-2.44c0-0.67,0-1.27,0-1.8s-0.01-1.02-0.04-1.5
	c-0.03-0.47-0.06-0.99-0.11-1.54h3.15c0.05,0.55,0.09,1.08,0.11,1.58c0.02,0.5,0.05,1.04,0.08,1.61c0.02,0.58,0.04,1.21,0.04,1.91
	c0,0.7,0,1.53,0,2.48c0.4-0.75,0.94-1.59,1.61-2.51c0.68-0.92,1.54-1.79,2.59-2.59c1.05-0.8,2.27-1.47,3.67-2.02
	c1.4-0.55,3.02-0.83,4.88-0.83c1.1,0,2.05,0.18,2.85,0.52l-0.98,3.23c-0.35-0.15-0.76-0.25-1.24-0.3c-0.48-0.05-0.91-0.08-1.31-0.08
	c-1.8,0-3.43,0.4-4.88,1.2c-1.45,0.8-2.7,1.85-3.75,3.15c-1.05,1.3-1.86,2.79-2.44,4.46c-0.58,1.68-0.86,3.36-0.86,5.06v17.62h-3.38
	V405.14z"/>
<path fill="#140B5A" d="M866.71,425.61c1.45,1.45,3.11,2.56,4.99,3.34c1.88,0.78,4.09,1.16,6.64,1.16c1.4,0,2.72-0.14,3.97-0.41
	c1.25-0.27,2.35-0.67,3.3-1.2c0.95-0.53,1.7-1.19,2.25-1.99c0.55-0.8,0.82-1.75,0.82-2.85c0-1.25-0.25-2.27-0.75-3.07
	c-0.5-0.8-1.24-1.46-2.21-1.99c-0.98-0.52-2.2-0.97-3.67-1.35c-1.48-0.38-3.16-0.79-5.06-1.24c-1.6-0.35-3.06-0.76-4.39-1.24
	c-1.33-0.47-2.46-1.06-3.41-1.76c-0.95-0.7-1.7-1.59-2.25-2.66c-0.55-1.07-0.82-2.41-0.82-4.01c0-1.55,0.35-2.91,1.05-4.09
	c0.7-1.17,1.64-2.16,2.81-2.96c1.17-0.8,2.52-1.39,4.05-1.76c1.52-0.38,3.11-0.56,4.76-0.56c2.7,0,5.09,0.5,7.16,1.5
	c2.07,1,3.76,2.28,5.06,3.82l-2.33,2.1c-1.2-1.3-2.59-2.35-4.16-3.15c-1.58-0.8-3.46-1.2-5.66-1.2c-1.1,0-2.2,0.09-3.3,0.26
	c-1.1,0.18-2.1,0.5-3,0.98c-0.9,0.48-1.62,1.12-2.17,1.95c-0.55,0.83-0.83,1.91-0.83,3.26c0,1.1,0.31,2.02,0.94,2.77
	s1.44,1.38,2.44,1.88c1,0.5,2.15,0.91,3.45,1.24c1.3,0.33,2.6,0.64,3.9,0.94c1.4,0.3,2.81,0.67,4.24,1.12
	c1.42,0.45,2.72,1.04,3.9,1.76c1.17,0.73,2.12,1.65,2.85,2.77c0.72,1.12,1.09,2.54,1.09,4.24c0,1.75-0.4,3.25-1.2,4.5
	c-0.8,1.25-1.85,2.29-3.15,3.11c-1.3,0.83-2.77,1.44-4.42,1.84c-1.65,0.4-3.3,0.6-4.95,0.6c-3.25,0-6.01-0.48-8.29-1.42
	c-2.28-0.95-4.21-2.22-5.81-3.83L866.71,425.61z"/>
<path fill="#140B5A" d="M696.76,390.14c-0.13,4.12-0.55,7.96-1.27,11.49c-0.89,4.34-2.19,8.07-3.92,11.2
	c-1.73,3.13-3.87,5.55-6.44,7.28c-2.57,1.73-5.53,2.59-8.89,2.59s-6.3-0.86-8.82-2.59c-2.52-1.73-4.64-4.15-6.37-7.28
	c-1.73-3.13-3.03-6.86-3.92-11.2c-0.46-2.25-0.79-4.62-1.02-7.11c-4.46-0.05-8.87-0.27-13.24-0.66c0.31,4.55,0.95,8.8,1.94,12.74
	c1.45,5.79,3.59,10.73,6.44,14.84c2.85,4.11,6.35,7.28,10.5,9.52c4.15,2.24,8.98,3.36,14.49,3.36c5.41,0,10.22-1.12,14.42-3.36
	c4.2-2.24,7.75-5.41,10.64-9.52c2.89-4.11,5.06-9.05,6.51-14.84c1.45-5.79,2.17-12.23,2.17-19.32c0-0.26-0.01-0.52-0.01-0.78
	C705.64,387.89,701.23,389.1,696.76,390.14z"/>
<path fill="#140B5A" d="M610.02,387.67c-4.32-1.27-8.57-2.7-12.74-4.3v37.79H581.6v11.2h43.82v-11.2h-15.4V387.67z"/>
<path fill="#FFFFFF" d="M656.12,394.53c-0.21-2.32-0.31-4.73-0.31-7.25c0-5.13,0.44-9.8,1.33-14c0.89-4.2,2.19-7.77,3.92-10.71
	c1.73-2.94,3.85-5.2,6.37-6.79c2.52-1.59,5.46-2.38,8.82-2.38s6.3,0.79,8.82,2.38c2.52,1.59,4.67,3.85,6.44,6.79
	c1.77,2.94,3.1,6.51,3.99,10.71c0.89,4.2,1.33,8.87,1.33,14c0,0.97-0.03,1.91-0.06,2.86c4.47-1.04,8.88-2.25,13.21-3.63
	c-0.05-6.69-0.77-12.73-2.16-18.12c-1.45-5.6-3.59-10.38-6.44-14.35c-2.85-3.97-6.37-7.02-10.57-9.17
	c-4.2-2.15-9.01-3.22-14.42-3.22c-5.51,0-10.34,1.07-14.49,3.22c-4.15,2.15-7.68,5.2-10.57,9.17c-2.89,3.97-5.06,8.75-6.51,14.35
	c-1.45,5.6-2.17,11.9-2.17,18.9c0,2.27,0.08,4.46,0.23,6.6C647.24,394.27,651.66,394.48,656.12,394.53z"/>
<path fill="#FFFFFF" d="M597.28,357.74v25.64c4.17,1.59,8.42,3.03,12.74,4.3v-43.65h-11.34L573.9,357.6l5.18,9.94L597.28,357.74z"/>
</svg>
